<?xml version="1.0" encoding="UTF-8" standalone="no"?>
<!-- Created with Inkscape (http://www.inkscape.org/) -->
<svg id="svg2" xmlns:rdf="http://www.w3.org/1999/02/22-rdf-syntax-ns#" xmlns="http://www.w3.org/2000/svg" viewBox="0 0 669.76 669.76" version="1.1" xmlns:cc="http://creativecommons.org/ns#" xmlns:xlink="http://www.w3.org/1999/xlink" xmlns:dc="http://purl.org/dc/elements/1.1/">
 <defs id="defs4">
  <linearGradient id="linearGradient4395">
   <stop id="stop4397" stop-color="#000" stop-opacity="0.18487395" offset="0"/>
   <stop id="stop4399" stop-color="#000" stop-opacity="0.53781515" offset="1"/>
  </linearGradient>
  <radialGradient id="radialGradient4693" xlink:href="#linearGradient4395" gradientUnits="userSpaceOnUse" cy="489.51" cx="282.86" r="66.714"/>
  <radialGradient id="radialGradient4701-9" gradientUnits="userSpaceOnUse" cy="489.51" cx="282.86" r="66.714">
   <stop id="stop4397-1" stop-color="#000" stop-opacity="0.18487395" offset="0"/>
   <stop id="stop4399-7" stop-color="#000" stop-opacity="0.53781515" offset="1"/>
  </radialGradient>
 </defs>
 <metadata id="metadata7">
  <rdf:RDF>
   <cc:Work rdf:about="">
    <dc:format>image/svg+xml</dc:format>
    <dc:type rdf:resource="http://purl.org/dc/dcmitype/StillImage"/>
    <dc:title/>
   </cc:Work>
  </rdf:RDF>
 </metadata>
 <g id="layer1" transform="translate(-287.96601,45.378635)">
  <path id="path3062" stroke-linejoin="miter" style="enable-background:accumulate;color:#000000;" d="m348.57,489.51a65.714,65.714,0,1,1,-131.43,0,65.714,65.714,0,1,1,131.43,0z" stroke-opacity="0.53947371000000000" fill-rule="nonzero" transform="matrix(0,-1,1,0,133.35211,818.6479)" stroke-dashoffset="0" stroke="#00007d" stroke-linecap="round" stroke-miterlimit="4" stroke-dasharray="none" stroke-width="2" fill="url(#radialGradient4701-9)"/>
  <path id="path3062-3" stroke-linejoin="miter" style="enable-background:accumulate;color:#000000;" d="m348.57,489.51c0,36.293-29.421,65.714-65.714,65.714s-65.714-29.421-65.714-65.714,29.421-65.714,65.714-65.714,65.714,29.421,65.714,65.714z" stroke-opacity="0.53947371000000000" fill-rule="nonzero" transform="matrix(-0.8660254,-0.5,0.5,-0.8660254,869.35179,854.85742)" stroke-dashoffset="0" stroke="#00007d" stroke-linecap="round" stroke-miterlimit="4" stroke-dasharray="none" stroke-width="2.00000001" fill="url(#radialGradient4701-9)"/>
  <path id="path4125" stroke-linejoin="miter" style="enable-background:accumulate;color:#000000;" d="m348.57,489.51a65.714,65.714,0,1,1,-131.43,0,65.714,65.714,0,1,1,131.43,0z" stroke-opacity="0.53947371000000000" transform="matrix(0,1,-1,0,1112.3622,-239.63781)" stroke-dashoffset="0" stroke="#00007d" stroke-linecap="round" stroke-miterlimit="4" stroke-dasharray="none" stroke-width="2" fill="url(#radialGradient4693)"/>
  <path id="path4127" stroke-linejoin="miter" style="enable-background:accumulate;color:#000000;" d="m348.57,489.51a65.714,65.714,0,1,1,-131.43,0,65.714,65.714,0,1,1,131.43,0z" stroke-opacity="0.53947371000000000" fill-rule="nonzero" transform="translate(93.714288,-200.00001)" stroke-dashoffset="0" stroke="#00007d" stroke-linecap="round" stroke-miterlimit="4" stroke-dasharray="none" stroke-width="2" fill="url(#radialGradient4701-9)"/>
  <path id="path4129" stroke-linejoin="miter" style="enable-background:accumulate;color:#000000;" d="m348.57,489.51a65.714,65.714,0,1,1,-131.43,0,65.714,65.714,0,1,1,131.43,0z" stroke-opacity="0.53947371000000000" fill-rule="nonzero" transform="matrix(0.70710678,0.70710678,-0.70710678,0.70710678,594.82899,-430.7878)" stroke-dashoffset="0" stroke="#00007d" stroke-linecap="round" stroke-miterlimit="4" stroke-dasharray="none" stroke-width="2" fill="url(#radialGradient4701-9)"/>
  <path id="path4131" stroke-linejoin="miter" style="enable-background:accumulate;color:#000000;" d="m348.57,489.51a65.714,65.714,0,1,1,-131.43,0,65.714,65.714,0,1,1,131.43,0z" stroke-opacity="0.53947371000000000" transform="matrix(-0.70710678,0.70710678,-0.70710678,-0.70710678,1343.15,261.47689)" stroke-dashoffset="0" stroke="#00007d" stroke-linecap="round" stroke-miterlimit="4" stroke-dasharray="none" stroke-width="2" fill="url(#radialGradient4693)"/>
  <path id="path4133" stroke-linejoin="miter" style="enable-background:accumulate;color:#000000;" d="m348.57,489.51a65.714,65.714,0,1,1,-131.43,0,65.714,65.714,0,1,1,131.43,0z" stroke-opacity="0.53947371000000000" fill-rule="nonzero" transform="matrix(-0.70710678,-0.70710678,0.70710678,-0.70710678,650.8853,1009.7979)" stroke-dashoffset="0" stroke="#00007d" stroke-linecap="round" stroke-miterlimit="4" stroke-dasharray="none" stroke-width="2" fill="url(#radialGradient4701-9)"/>
  <path id="path4135" stroke-linejoin="miter" style="enable-background:accumulate;color:#000000;" d="m348.57,489.51a65.714,65.714,0,1,1,-131.43,0,65.714,65.714,0,1,1,131.43,0z" stroke-opacity="0.53947371000000000" fill-rule="nonzero" transform="matrix(0.70710678,-0.70710678,0.70710678,0.70710678,-97.435713,317.5332)" stroke-dashoffset="0" stroke="#00007d" stroke-linecap="round" stroke-miterlimit="4" stroke-dasharray="none" stroke-width="2" fill="url(#radialGradient4701-9)"/>
  <path id="path4137" stroke-linejoin="miter" style="enable-background:accumulate;color:#000000;" d="m348.57,489.51a65.714,65.714,0,1,1,-131.43,0,65.714,65.714,0,1,1,131.43,0z" stroke-opacity="0.53947371000000000" fill-rule="nonzero" transform="matrix(0.70710678,-0.70710678,0.70710678,0.70710678,76.714578,143.38291)" stroke-dashoffset="0" stroke="#00007d" stroke-linecap="round" stroke-miterlimit="4" stroke-dasharray="none" stroke-width="2" fill="url(#radialGradient4701-9)"/>
  <text id="text4885" style="writing-mode:tb-rl;letter-spacing:0px;word-spacing:0px;" font-weight="normal" xml:space="preserve" font-size="144px" font-style="normal" y="94.969337" x="628.90405" font-family="Sans" line-height="125%" fill="#000000"><tspan id="tspan4887" style="writing-mode:lr-tb;text-anchor:middle;text-align:center;" font-weight="bold" font-style="normal" font-stretch="normal" font-variant="normal" y="94.969337" x="628.90405" font-family="Arial">1</tspan></text>
  <text id="text4914" style="writing-mode:tb-rl;letter-spacing:0px;word-spacing:0px;" line-height="125%" font-weight="bold" font-variant="normal" font-size="144px" font-stretch="normal" font-style="normal" y="167.10474" x="450.57016" font-family="Arial" xml:space="preserve" fill="#000000"><tspan id="tspan4916" style="writing-mode:lr-tb;text-anchor:middle;text-align:center;" y="167.10474" x="450.57016">2</tspan><tspan id="tspan5085" style="writing-mode:lr-tb;text-anchor:middle;text-align:center;" y="347.10474" x="450.57016"/></text>
  <text id="text4914-3" style="writing-mode:tb-rl;letter-spacing:0px;word-spacing:0px;" line-height="125%" font-weight="normal" font-size="144px" font-style="normal" y="340.37613" x="376.99332" font-family="Sans" xml:space="preserve" fill="#000000"><tspan id="tspan4916-9" style="writing-mode:lr-tb;text-anchor:middle;text-align:center;" font-weight="bold" font-style="normal" font-stretch="normal" font-variant="normal" y="340.37613" x="376.99332" font-family="Arial">3</tspan></text>
  <text id="text4914-3-7" style="writing-mode:tb-rl;letter-spacing:0px;word-spacing:0px;" line-height="125%" font-weight="normal" font-size="144px" font-style="normal" y="515.40533" x="449.05838" font-family="Sans" xml:space="preserve" fill="#000000"><tspan id="tspan4916-9-7" style="writing-mode:lr-tb;text-anchor:middle;text-align:center;" font-weight="bold" font-style="normal" font-stretch="normal" font-variant="normal" y="515.40533" x="449.05838" font-family="Arial">4</tspan></text>
  <text id="text4914-3-7-4" style="writing-mode:tb-rl;letter-spacing:0px;word-spacing:0px;" line-height="125%" font-weight="normal" font-size="144px" font-style="normal" y="585.7478" x="621.87274" font-family="Sans" xml:space="preserve" fill="#000000"><tspan id="tspan4916-9-7-5" style="writing-mode:lr-tb;text-anchor:middle;text-align:center;" font-weight="bold" font-style="normal" font-stretch="normal" font-variant="normal" y="585.7478" x="621.87274" font-family="Arial">5</tspan></text>
  <text id="text4914-3-7-4-4" style="writing-mode:tb-rl;letter-spacing:0px;word-spacing:0px;" line-height="125%" font-weight="normal" font-size="144px" font-style="normal" y="535.79077" x="796.55042" font-family="Sans" xml:space="preserve" fill="#000000"><tspan id="tspan4916-9-7-5-1" style="writing-mode:lr-tb;text-anchor:middle;text-align:center;" font-weight="bold" font-style="normal" font-stretch="normal" font-variant="normal" y="535.79077" x="796.55042" font-family="Arial">6</tspan></text>
  <text id="text4914-3-7-4-4-1" style="writing-mode:tb-rl;letter-spacing:0px;word-spacing:0px;" line-height="125%" font-weight="normal" font-size="144px" font-style="normal" y="340.341" x="869.3186" font-family="Sans" xml:space="preserve" fill="#000000"><tspan id="tspan4916-9-7-5-1-8" style="writing-mode:lr-tb;text-anchor:middle;text-align:center;" font-weight="bold" font-style="normal" font-stretch="normal" font-variant="normal" y="340.341" x="869.3186" font-family="Arial">7</tspan></text>
  <text id="text4914-3-7-4-4-1-4" style="writing-mode:tb-rl;letter-spacing:0px;word-spacing:0px;" line-height="125%" font-weight="normal" font-size="144px" font-style="normal" y="166.1907" x="797.00745" font-family="Sans" xml:space="preserve" fill="#000000"><tspan id="tspan4916-9-7-5-1-8-3" style="writing-mode:lr-tb;text-anchor:middle;text-align:center;" font-weight="bold" font-style="normal" font-stretch="normal" font-variant="normal" y="166.1907" x="797.00745" font-family="Arial">8</tspan></text>
 </g>
</svg>
