<?xml version="1.0" encoding="UTF-8" standalone="no"?>
<!-- Created with Inkscape (http://www.inkscape.org/) -->
<svg id="svg2" xmlns:rdf="http://www.w3.org/1999/02/22-rdf-syntax-ns#" xmlns="http://www.w3.org/2000/svg" viewBox="0 0 669.76 669.76" height="100%" width="100%" version="1.1" xmlns:cc="http://creativecommons.org/ns#" xmlns:dc="http://purl.org/dc/elements/1.1/">
 <metadata id="metadata7">
  <rdf:RDF>
   <cc:Work rdf:about="">
    <dc:format>image/svg+xml</dc:format>
    <dc:type rdf:resource="http://purl.org/dc/dcmitype/StillImage"/>
    <dc:title/>
   </cc:Work>
  </rdf:RDF>
 </metadata>
 <g id="layer1" stroke-linejoin="miter" stroke-opacity="0.53947371" display="none" transform="translate(-287.96601,45.378635)" stroke-dashoffset="0" stroke="#00007d" stroke-linecap="round" stroke-miterlimit="4" stroke-dasharray="none" fill="none">
  <path id="path3062" stroke-width="2" style="color:#000000;enable-background:accumulate;" transform="matrix(0,-1,1,0,133.35211,818.6479)" d="m348.57,489.51a65.714,65.714,0,1,1,-131.43,0,65.714,65.714,0,1,1,131.43,0z"/>
  <path id="path3062-3" stroke-width="2" style="color:#000000;enable-background:accumulate;" transform="matrix(-0.8660254,-0.5,0.5,-0.8660254,869.35179,854.85742)" d="m348.57,489.51a65.714,65.714,0,1,1,-131.43,0,65.714,65.714,0,1,1,131.43,0z"/>
  <path id="path3961" stroke-width="2.24203992" style="color:#000000;enable-background:accumulate;" transform="matrix(0.89204476,0,0,0.89204476,67.240687,31.253585)" d="m997.14,289.51a374.29,374.29,0,1,1,-748.57,0,374.29,374.29,0,1,1,748.57,0z"/>
  <path id="path4125" stroke-width="2" style="color:#000000;enable-background:accumulate;" transform="matrix(0,1,-1,0,1112.3622,-239.63781)" d="m348.57,489.51a65.714,65.714,0,1,1,-131.43,0,65.714,65.714,0,1,1,131.43,0z"/>
  <path id="path4127" stroke-width="2" style="color:#000000;enable-background:accumulate;" transform="translate(93.714288,-200.00001)" d="m348.57,489.51a65.714,65.714,0,1,1,-131.43,0,65.714,65.714,0,1,1,131.43,0z"/>
  <path id="path4129" stroke-width="2" style="color:#000000;enable-background:accumulate;" transform="matrix(0.70710678,0.70710678,-0.70710678,0.70710678,594.82899,-430.7878)" d="m348.57,489.51a65.714,65.714,0,1,1,-131.43,0,65.714,65.714,0,1,1,131.43,0z"/>
  <path id="path4131" stroke-width="2" style="color:#000000;enable-background:accumulate;" transform="matrix(-0.70710678,0.70710678,-0.70710678,-0.70710678,1343.15,261.47689)" d="m348.57,489.51a65.714,65.714,0,1,1,-131.43,0,65.714,65.714,0,1,1,131.43,0z"/>
  <path id="path4133" stroke-width="2" style="color:#000000;enable-background:accumulate;" transform="matrix(-0.70710678,-0.70710678,0.70710678,-0.70710678,650.8853,1009.7979)" d="m348.57,489.51a65.714,65.714,0,1,1,-131.43,0,65.714,65.714,0,1,1,131.43,0z"/>
  <path id="path4135" stroke-width="2" style="color:#000000;enable-background:accumulate;" transform="matrix(0.70710678,-0.70710678,0.70710678,0.70710678,-97.435713,317.5332)" d="m348.57,489.51a65.714,65.714,0,1,1,-131.43,0,65.714,65.714,0,1,1,131.43,0z"/>
  <path id="path4137" stroke-width="2" style="color:#000000;enable-background:accumulate;" transform="matrix(0.70710678,-0.70710678,0.70710678,0.70710678,76.714578,143.38291)" d="m348.57,489.51a65.714,65.714,0,1,1,-131.43,0,65.714,65.714,0,1,1,131.43,0z"/>
 </g>
 <path id="path4212" stroke-linejoin="miter" d="M334.89,334.88v-246.29" stroke-opacity="0.36666667" stroke="#0050d9" stroke-linecap="round" stroke-miterlimit="4" stroke-dasharray="none" stroke-width="64" fill="none"/>
 <path id="path4224" stroke-linejoin="miter" d="M88.605,334.88,160.74,160.73" stroke-opacity="0.36666667" stroke="#0050d9" stroke-linecap="round" stroke-miterlimit="4" stroke-dasharray="none" stroke-width="64" fill="none"/>
 <path id="path4236" stroke-linejoin="miter" d="M580.74,340.73,508.61,514.88" stroke-opacity="0.36666667" stroke="#0050d9" stroke-linecap="round" stroke-miterlimit="4" stroke-dasharray="none" stroke-width="64" fill="none"/>
 <path id="path4260" stroke-linejoin="miter" d="M334.89,581.17,160.74,509.03" stroke-opacity="0.36666667" stroke="#0050d9" stroke-linecap="round" stroke-miterlimit="4" stroke-dasharray="none" stroke-width="64" fill="none"/>
</svg>
