<?xml version="1.0" encoding="UTF-8" standalone="no"?>
<svg
   xmlns:dc="http://purl.org/dc/elements/1.1/"
   xmlns:cc="http://creativecommons.org/ns#"
   xmlns:rdf="http://www.w3.org/1999/02/22-rdf-syntax-ns#"
   xmlns:svg="http://www.w3.org/2000/svg"
   xmlns="http://www.w3.org/2000/svg"
   xmlns:xlink="http://www.w3.org/1999/xlink"
   xmlns:sodipodi="http://sodipodi.sourceforge.net/DTD/sodipodi-0.dtd"
   xmlns:inkscape="http://www.inkscape.org/namespaces/inkscape"
   width="48pt"
   height="48pt"
   viewBox="0 0 256 256"
   style="overflow:visible"
   id="svg7238"
   version="1.1"
   inkscape:version="0.48.3.1 r9886"
   sodipodi:docname="Gtk-go-forward-ltr.svg">
  <metadata
     id="metadata7282">
    <rdf:RDF>
      <cc:Work
         rdf:about="">
        <dc:format>image/svg+xml</dc:format>
        <dc:type
           rdf:resource="http://purl.org/dc/dcmitype/StillImage" />
        <dc:title></dc:title>
      </cc:Work>
    </rdf:RDF>
  </metadata>
  <defs
     id="defs7280">
    <linearGradient
       inkscape:collect="always"
       xlink:href="#XMLID_6_"
       id="linearGradient7294"
       gradientUnits="userSpaceOnUse"
       gradientTransform="matrix(-1,0,0,1,256,0)"
       x1="83.459"
       y1="67.090302"
       x2="204.80161"
       y2="188.43291" />
    <linearGradient
       inkscape:collect="always"
       xlink:href="#XMLID_7_"
       id="linearGradient7296"
       gradientUnits="userSpaceOnUse"
       gradientTransform="matrix(-1,0,0,1,256,0)"
       x1="83.477501"
       y1="67.087402"
       x2="204.8054"
       y2="188.4153" />
    <linearGradient
       inkscape:collect="always"
       xlink:href="#XMLID_8_"
       id="linearGradient7298"
       gradientUnits="userSpaceOnUse"
       gradientTransform="matrix(-1,0,0,1,256,0)"
       x1="83.397903"
       y1="66.984398"
       x2="204.80679"
       y2="188.3932" />
    <linearGradient
       inkscape:collect="always"
       xlink:href="#XMLID_9_"
       id="linearGradient7300"
       gradientUnits="userSpaceOnUse"
       gradientTransform="matrix(-1,0,0,1,256,0)"
       x1="82.5718"
       y1="67.966797"
       x2="203.9104"
       y2="189.3054" />
    <linearGradient
       inkscape:collect="always"
       xlink:href="#XMLID_10_"
       id="linearGradient7302"
       gradientUnits="userSpaceOnUse"
       gradientTransform="matrix(-1,0,0,1,256,0)"
       x1="102.7583"
       y1="92.283699"
       x2="195.3558"
       y2="184.8815" />
  </defs>
  <sodipodi:namedview
     pagecolor="#ffffff"
     bordercolor="#666666"
     borderopacity="1"
     objecttolerance="10"
     gridtolerance="10"
     guidetolerance="10"
     inkscape:pageopacity="0"
     inkscape:pageshadow="2"
     inkscape:window-width="1362"
     inkscape:window-height="740"
     id="namedview7278"
     showgrid="false"
     inkscape:zoom="3.9333333"
     inkscape:cx="30"
     inkscape:cy="30"
     inkscape:window-x="0"
     inkscape:window-y="12"
     inkscape:window-maximized="0"
     inkscape:current-layer="svg7238" />
  <linearGradient
     x1="83.459"
     y1="67.090302"
     x2="204.80161"
     y2="188.43291"
     id="XMLID_6_"
     gradientUnits="userSpaceOnUse"
     gradientTransform="matrix(-1,0,0,1,256,0)">
    <stop
       style="stop-color:#0066cc;stop-opacity:1"
       offset="0"
       id="stop7244" />
    <stop
       style="stop-color:#003399;stop-opacity:1"
       offset="1"
       id="stop7246" />
  </linearGradient>
  <linearGradient
     x1="83.477501"
     y1="67.087402"
     x2="204.8054"
     y2="188.4153"
     id="XMLID_7_"
     gradientUnits="userSpaceOnUse"
     gradientTransform="matrix(-1,0,0,1,256,0)">
    <stop
       style="stop-color:#0066cc;stop-opacity:1"
       offset="0"
       id="stop7251" />
    <stop
       style="stop-color:#003399;stop-opacity:1"
       offset="1"
       id="stop7253" />
  </linearGradient>
  <linearGradient
     x1="83.397903"
     y1="66.984398"
     x2="204.80679"
     y2="188.3932"
     id="XMLID_8_"
     gradientUnits="userSpaceOnUse"
     gradientTransform="matrix(-1,0,0,1,256,0)">
    <stop
       style="stop-color:#ffffff;stop-opacity:1"
       offset="0"
       id="stop7258" />
    <stop
       style="stop-color:#f0f0f0;stop-opacity:1"
       offset="1"
       id="stop7260" />
  </linearGradient>
  <linearGradient
     x1="82.5718"
     y1="67.966797"
     x2="203.9104"
     y2="189.3054"
     id="XMLID_9_"
     gradientUnits="userSpaceOnUse"
     gradientTransform="matrix(-1,0,0,1,256,0)">
    <stop
       style="stop-color:#ffffff;stop-opacity:1"
       offset="0"
       id="stop7265" />
    <stop
       style="stop-color:#dfdfdf;stop-opacity:1"
       offset="1"
       id="stop7267" />
  </linearGradient>
  <linearGradient
     x1="102.7583"
     y1="92.283699"
     x2="195.3558"
     y2="184.8815"
     id="XMLID_10_"
     gradientUnits="userSpaceOnUse"
     gradientTransform="matrix(-1,0,0,1,256,0)">
    <stop
       style="stop-color:#428aff;stop-opacity:1"
       offset="0"
       id="stop7272" />
    <stop
       style="stop-color:#003399;stop-opacity:1"
       offset="1"
       id="stop7274" />
  </linearGradient>
  <g
     id="g7284"
     transform="matrix(0.70710678,-0.70710678,0.70710678,0.70710678,-53.019336,128)">
    <rect
       style="fill:none"
       id="_x3C_Slice_x3E_"
       y="0"
       x="0"
       height="256"
       width="256" />
    <path
       style="opacity:0.2"
       id="path657"
       d="m 116.728,22.158 c 0.002,10e-4 2.879,1.773 2.879,1.773 3.023,1.861 30.316,18.787 57.427,39.705 38.601,29.781 56.577,51.503 56.577,68.363 l 0,0 c 0,16.859 -17.977,38.582 -56.577,68.362 -27.165,20.959 -54.41,37.85 -57.427,39.706 l -2.881,1.773 c -2.566,1.582 -5.795,1.65 -8.425,0.179 -2.631,-1.471 -4.265,-4.256 -4.265,-7.268 0,0 0,-42.485 0,-48.729 -6.506,0 -69.324,0 -69.324,0 -4.59,0 -8.325,-3.734 -8.325,-8.324 l 0,-91.396 c 0,-4.59 3.734,-8.325 8.325,-8.325 0,0 62.817,0 69.324,0 0,-6.243 0,-48.729 0,-48.729 0,-3.014 1.635,-5.799 4.267,-7.268 2.628,-1.471 5.857,-1.403 8.425,0.178 z"
       inkscape:connector-curvature="0" />
    <path
       style="opacity:0.2"
       id="path658"
       d="m 115.728,20.158 c 0.002,10e-4 2.879,1.773 2.879,1.773 3.023,1.861 30.316,18.787 57.427,39.705 38.601,29.781 56.577,51.503 56.577,68.363 l 0,0 c 0,16.859 -17.977,38.582 -56.577,68.362 -27.165,20.959 -54.41,37.85 -57.427,39.706 l -2.881,1.773 c -2.566,1.582 -5.795,1.65 -8.425,0.179 -2.631,-1.471 -4.265,-4.256 -4.265,-7.268 0,0 0,-42.485 0,-48.729 -6.506,0 -69.324,0 -69.324,0 -4.59,0 -8.325,-3.734 -8.325,-8.324 l 0,-91.396 c 0,-4.59 3.734,-8.325 8.325,-8.325 0,0 62.817,0 69.324,0 0,-6.243 0,-48.729 0,-48.729 0,-3.014 1.635,-5.799 4.267,-7.268 2.628,-1.471 5.857,-1.403 8.425,0.178 z"
       inkscape:connector-curvature="0" />
    <path
       id="path7248"
       style="fill:url(#linearGradient7294)"
       d="m 114.728,18.158 c 0.002,10e-4 2.879,1.773 2.879,1.773 3.023,1.861 30.316,18.787 57.427,39.705 38.601,29.781 56.577,51.503 56.577,68.363 l 0,0 c 0,16.859 -17.977,38.582 -56.577,68.362 -27.165,20.959 -54.41,37.85 -57.427,39.706 l -2.881,1.773 c -2.566,1.582 -5.795,1.65 -8.425,0.179 -2.631,-1.471 -4.265,-4.256 -4.265,-7.268 0,0 0,-42.485 0,-48.729 -6.506,0 -69.324,0 -69.324,0 -4.59,0 -8.325,-3.734 -8.325,-8.324 l 0,-91.396 c 0,-4.59 3.734,-8.325 8.325,-8.325 0,0 62.817,0 69.324,0 0,-6.243 0,-48.729 0,-48.729 0,-3.014 1.635,-5.799 4.267,-7.268 2.628,-1.471 5.857,-1.403 8.425,0.178 z"
       inkscape:connector-curvature="0" />
    <path
       id="path7255"
       style="fill:url(#linearGradient7296)"
       d="m 112.839,21.224 2.881,1.773 0,0 c 3.004,1.85 30.138,18.676 57.116,39.49 37.128,28.645 55.176,50.075 55.176,65.513 0,15.438 -18.048,36.866 -55.176,65.512 -26.962,20.802 -54.108,37.641 -57.116,39.491 l -2.881,1.773 c -1.458,0.898 -3.288,0.938 -4.781,0.103 -1.495,-0.836 -2.421,-2.414 -2.421,-4.126 0,0 0,-44.38 0,-52.329 -8.334,0 -72.924,0 -72.924,0 -2.609,0 -4.725,-2.115 -4.725,-4.725 l 0,-91.397 c 0,-2.609 2.116,-4.725 4.725,-4.725 0,0 64.589,0 72.924,0 0,-7.949 0,-52.33 0,-52.33 0,-1.712 0.926,-3.29 2.421,-4.125 1.493,-0.835 3.324,-0.796 4.781,0.102 z"
       inkscape:connector-curvature="0" />
    <path
       id="path7262"
       style="fill:url(#linearGradient7298)"
       d="m 113.242,27.021 c 4.494,2.766 110.044,68.127 110.044,100.979 0,32.852 -105.55,98.213 -110.044,100.979 l -2.881,1.773 c 0,0 0,-53.527 0,-57.054 -3.598,0 -77.649,0 -77.649,0 l 0,-91.396 c 0,0 74.051,0 77.649,0 0,-3.527 0,-57.055 0,-57.055 l 2.881,1.774 z"
       inkscape:connector-curvature="0" />
    <path
       id="path7269"
       style="fill:url(#linearGradient7300)"
       d="m 216.986,128 c 0,20.505 -58.932,65.1 -100.325,91.402 0,-14.565 0,-52.004 0,-52.004 0,0 -67.01,0 -77.648,0 0,-10.114 0,-68.683 0,-78.797 10.638,0 77.648,0 77.648,0 0,0 0,-37.439 0,-52.005 41.394,26.3 100.325,70.892 100.325,91.404 z"
       inkscape:connector-curvature="0" />
    <path
       id="path7276"
       style="fill:url(#linearGradient7302)"
       d="m 155.735,80.997 0,0 c 39.646,30.265 46.141,44.281 47.09,47.005 -0.95,2.726 -7.455,16.743 -47.09,47 -7.631,5.826 -16.042,11.903 -25.033,18.11 0,-11.062 0,-39.753 0,-39.753 0,0 -69.662,0 -77.649,0 0,-7.067 0,-43.65 0,-50.718 7.987,0 77.649,0 77.649,0 0,0 0,-28.692 0,-39.754 8.985,6.203 17.397,12.28 25.033,18.11 z"
       inkscape:connector-curvature="0" />
  </g>
</svg>
