<?xml version="1.0" encoding="UTF-8" standalone="no"?>
<svg
   xmlns:dc="http://purl.org/dc/elements/1.1/"
   xmlns:cc="http://creativecommons.org/ns#"
   xmlns:rdf="http://www.w3.org/1999/02/22-rdf-syntax-ns#"
   xmlns:svg="http://www.w3.org/2000/svg"
   xmlns="http://www.w3.org/2000/svg"
   xmlns:sodipodi="http://sodipodi.sourceforge.net/DTD/sodipodi-0.dtd"
   xmlns:inkscape="http://www.inkscape.org/namespaces/inkscape"
   height="16"
   width="16"
   version="1.1"
   id="svg2985"
   inkscape:version="0.48.3.1 r9886"
   sodipodi:docname="racks.svg">
  <metadata
     id="metadata3027">
    <rdf:RDF>
      <cc:Work
         rdf:about="">
        <dc:format>image/svg+xml</dc:format>
        <dc:type
           rdf:resource="http://purl.org/dc/dcmitype/StillImage" />
        <dc:title></dc:title>
      </cc:Work>
    </rdf:RDF>
  </metadata>
  <defs
     id="defs3025" />
  <sodipodi:namedview
     pagecolor="#ffffff"
     bordercolor="#666666"
     borderopacity="1"
     objecttolerance="10"
     gridtolerance="10"
     guidetolerance="10"
     inkscape:pageopacity="0"
     inkscape:pageshadow="2"
     inkscape:window-width="1366"
     inkscape:window-height="754"
     id="namedview3023"
     showgrid="false"
     inkscape:zoom="18.5625"
     inkscape:cx="6.9745497"
     inkscape:cy="7.5741426"
     inkscape:window-x="1024"
     inkscape:window-y="0"
     inkscape:window-maximized="0"
     inkscape:current-layer="svg2985" />
  <path
     style="color:#000000;fill:none;stroke:#3a3a97;stroke-width:0.40825933;stroke-linecap:round;stroke-linejoin:miter;stroke-miterlimit:4;stroke-dasharray:none;stroke-dashoffset:0;enable-background:accumulate"
     d="m 2.5499847,1.3796211 c 0,0.6490123 -0.526112,1.1751244 -1.1751243,1.1751244 -0.64901232,0 -1.17512433,-0.5261121 -1.17512433,-1.1751244 0,-0.6490123 0.52611201,-1.17512432 1.17512433,-1.17512432 0.6490123,0 1.1751243,0.52611202 1.1751243,1.17512432 z"
     id="path2991"
     inkscape:connector-curvature="0" />
  <path
     style="color:#000000;fill:none;stroke:#3a3a97;stroke-width:0.40825933;stroke-linecap:round;stroke-linejoin:miter;stroke-miterlimit:4;stroke-dasharray:none;stroke-dashoffset:0;enable-background:accumulate"
     d="m 6.9635847,1.3796211 c 0,0.6490123 -0.526112,1.1751244 -1.1751243,1.1751244 -0.6490123,0 -1.1751243,-0.5261121 -1.1751243,-1.1751244 0,-0.6490123 0.526112,-1.17512432 1.1751243,-1.17512432 0.6490123,0 1.1751243,0.52611202 1.1751243,1.17512432 z"
     id="path2993"
     inkscape:connector-curvature="0" />
  <path
     style="color:#000000;fill:#ff0000;stroke:#3a3a97;stroke-width:0.40825932999999998;stroke-linecap:round;stroke-linejoin:miter;stroke-miterlimit:4;stroke-dasharray:none;stroke-dashoffset:0;enable-background:accumulate"
     d="m 11.377185,1.3796211 c 0,0.6490123 -0.526112,1.1751244 -1.175125,1.1751244 -0.6490119,0 -1.1751239,-0.5261121 -1.1751239,-1.1751244 0,-0.6490123 0.526112,-1.17512432 1.1751239,-1.17512432 0.649013,0 1.175125,0.52611202 1.175125,1.17512432 z"
     id="path2995"
     inkscape:connector-curvature="0" />
  <path
     style="color:#000000;fill:none;stroke:#3a3a97;stroke-width:0.40825933;stroke-linecap:round;stroke-linejoin:miter;stroke-miterlimit:4;stroke-dasharray:none;stroke-dashoffset:0;enable-background:accumulate"
     d="m 15.790785,1.3796211 c 0,0.6490123 -0.526112,1.1751244 -1.175125,1.1751244 -0.649012,0 -1.175124,-0.5261121 -1.175124,-1.1751244 0,-0.6490123 0.526112,-1.17512432 1.175124,-1.17512432 0.649013,0 1.175125,0.52611202 1.175125,1.17512432 z"
     id="path2997"
     inkscape:connector-curvature="0" />
  <path
     style="color:#000000;fill:none;stroke:#3a3a97;stroke-width:0.40825933;stroke-linecap:round;stroke-linejoin:miter;stroke-miterlimit:4;stroke-dasharray:none;stroke-dashoffset:0;enable-background:accumulate"
     d="m 2.5499847,5.7932211 c 0,0.6490123 -0.526112,1.1751244 -1.1751243,1.1751244 -0.64901232,0 -1.17512433,-0.5261121 -1.17512433,-1.1751244 0,-0.6490123 0.52611201,-1.1751243 1.17512433,-1.1751243 0.6490123,0 1.1751243,0.526112 1.1751243,1.1751243 z"
     id="path2999"
     inkscape:connector-curvature="0" />
  <path
     style="color:#000000;fill:#ff0000;stroke:#3a3a97;stroke-width:0.40825932999999998;stroke-linecap:round;stroke-linejoin:miter;stroke-miterlimit:4;stroke-dasharray:none;stroke-dashoffset:0;enable-background:accumulate"
     d="m 6.9635847,5.7932211 c 0,0.6490123 -0.526112,1.1751244 -1.1751243,1.1751244 -0.6490123,0 -1.1751243,-0.5261121 -1.1751243,-1.1751244 0,-0.6490123 0.526112,-1.1751243 1.1751243,-1.1751243 0.6490123,0 1.1751243,0.526112 1.1751243,1.1751243 z"
     id="path3001"
     inkscape:connector-curvature="0" />
  <path
     style="color:#000000;fill:none;stroke:#3a3a97;stroke-width:0.40825933;stroke-linecap:round;stroke-linejoin:miter;stroke-miterlimit:4;stroke-dasharray:none;stroke-dashoffset:0;enable-background:accumulate"
     d="m 11.377185,5.7932211 c 0,0.6490123 -0.526112,1.1751244 -1.175125,1.1751244 -0.6490119,0 -1.1751239,-0.5261121 -1.1751239,-1.1751244 0,-0.6490123 0.526112,-1.1751243 1.1751239,-1.1751243 0.649013,0 1.175125,0.526112 1.175125,1.1751243 z"
     id="path3003"
     inkscape:connector-curvature="0" />
  <path
     style="color:#000000;fill:#ff0000;stroke:#3a3a97;stroke-width:0.40825932999999998;stroke-linecap:round;stroke-linejoin:miter;stroke-miterlimit:4;stroke-dasharray:none;stroke-dashoffset:0;enable-background:accumulate"
     d="m 15.790785,5.7932211 c 0,0.6490123 -0.526112,1.1751244 -1.175125,1.1751244 -0.649012,0 -1.175124,-0.5261121 -1.175124,-1.1751244 0,-0.6490123 0.526112,-1.1751243 1.175124,-1.1751243 0.649013,0 1.175125,0.526112 1.175125,1.1751243 z"
     id="path3005"
     inkscape:connector-curvature="0" />
  <path
     style="color:#000000;fill:none;stroke:#3a3a97;stroke-width:0.40825933;stroke-linecap:round;stroke-linejoin:miter;stroke-miterlimit:4;stroke-dasharray:none;stroke-dashoffset:0;enable-background:accumulate"
     d="m 2.5499847,10.206821 c 0,0.649012 -0.526112,1.175124 -1.1751243,1.175124 -0.64901232,0 -1.17512433,-0.526112 -1.17512433,-1.175124 0,-0.6490122 0.52611201,-1.1751242 1.17512433,-1.1751242 0.6490123,0 1.1751243,0.526112 1.1751243,1.1751242 z"
     id="path3007"
     inkscape:connector-curvature="0" />
  <path
     style="color:#000000;fill:none;stroke:#3a3a97;stroke-width:0.40825933;stroke-linecap:round;stroke-linejoin:miter;stroke-miterlimit:4;stroke-dasharray:none;stroke-dashoffset:0;enable-background:accumulate"
     d="m 6.9635847,10.206821 c 0,0.649012 -0.526112,1.175124 -1.1751243,1.175124 -0.6490123,0 -1.1751243,-0.526112 -1.1751243,-1.175124 0,-0.6490122 0.526112,-1.1751242 1.1751243,-1.1751242 0.6490123,0 1.1751243,0.526112 1.1751243,1.1751242 z"
     id="path3009"
     inkscape:connector-curvature="0" />
  <path
     style="color:#000000;fill:none;stroke:#3a3a97;stroke-width:0.40825933;stroke-linecap:round;stroke-linejoin:miter;stroke-miterlimit:4;stroke-dasharray:none;stroke-dashoffset:0;enable-background:accumulate"
     d="m 11.377185,10.206821 c 0,0.649012 -0.526112,1.175124 -1.175125,1.175124 -0.6490119,0 -1.1751239,-0.526112 -1.1751239,-1.175124 0,-0.6490122 0.526112,-1.1751242 1.1751239,-1.1751242 0.649013,0 1.175125,0.526112 1.175125,1.1751242 z"
     id="path3011"
     inkscape:connector-curvature="0" />
  <path
     style="color:#000000;fill:none;stroke:#3a3a97;stroke-width:0.40825933;stroke-linecap:round;stroke-linejoin:miter;stroke-miterlimit:4;stroke-dasharray:none;stroke-dashoffset:0;enable-background:accumulate"
     d="m 15.790785,10.206821 c 0,0.649012 -0.526112,1.175124 -1.175125,1.175124 -0.649012,0 -1.175124,-0.526112 -1.175124,-1.175124 0,-0.6490122 0.526112,-1.1751242 1.175124,-1.1751242 0.649013,0 1.175125,0.526112 1.175125,1.1751242 z"
     id="path3013"
     inkscape:connector-curvature="0" />
  <path
     style="color:#000000;fill:none;stroke:#3a3a97;stroke-width:0.40825933;stroke-linecap:round;stroke-linejoin:miter;stroke-miterlimit:4;stroke-dasharray:none;stroke-dashoffset:0;enable-background:accumulate"
     d="m 2.5499847,14.620421 c 0,0.649012 -0.526112,1.175124 -1.1751243,1.175124 -0.64901232,0 -1.17512433,-0.526112 -1.17512433,-1.175124 0,-0.649012 0.52611201,-1.175124 1.17512433,-1.175124 0.6490123,0 1.1751243,0.526112 1.1751243,1.175124 z"
     id="path3015"
     inkscape:connector-curvature="0" />
  <path
     style="color:#000000;fill:#ff0000;stroke:#3a3a97;stroke-width:0.40825932999999998;stroke-linecap:round;stroke-linejoin:miter;stroke-miterlimit:4;stroke-dasharray:none;stroke-dashoffset:0;enable-background:accumulate"
     d="m 6.9635847,14.620421 c 0,0.649012 -0.526112,1.175124 -1.1751243,1.175124 -0.6490123,0 -1.1751243,-0.526112 -1.1751243,-1.175124 0,-0.649012 0.526112,-1.175124 1.1751243,-1.175124 0.6490123,0 1.1751243,0.526112 1.1751243,1.175124 z"
     id="path3017"
     inkscape:connector-curvature="0" />
  <path
     style="color:#000000;fill:#ff0000;stroke:#3a3a97;stroke-width:0.40825932999999998;stroke-linecap:round;stroke-linejoin:miter;stroke-miterlimit:4;stroke-dasharray:none;stroke-dashoffset:0;enable-background:accumulate"
     d="m 11.377185,14.620421 c 0,0.649012 -0.526112,1.175124 -1.175125,1.175124 -0.6490119,0 -1.1751239,-0.526112 -1.1751239,-1.175124 0,-0.649012 0.526112,-1.175124 1.1751239,-1.175124 0.649013,0 1.175125,0.526112 1.175125,1.175124 z"
     id="path3019"
     inkscape:connector-curvature="0" />
  <path
     style="color:#000000;fill:none;stroke:#3a3a97;stroke-width:0.40825933;stroke-linecap:round;stroke-linejoin:miter;stroke-miterlimit:4;stroke-dasharray:none;stroke-dashoffset:0;enable-background:accumulate"
     d="m 15.790785,14.620421 c 0,0.649012 -0.526112,1.175124 -1.175125,1.175124 -0.649012,0 -1.175124,-0.526112 -1.175124,-1.175124 0,-0.649012 0.526112,-1.175124 1.175124,-1.175124 0.649013,0 1.175125,0.526112 1.175125,1.175124 z"
     id="path3021"
     inkscape:connector-curvature="0" />
</svg>
