<?xml version="1.0" encoding="UTF-8" standalone="no"?>
<svg xmlns:rdf="http://www.w3.org/1999/02/22-rdf-syntax-ns#" xmlns="http://www.w3.org/2000/svg" height="669.76" width="669.76" version="1.1" xmlns:cc="http://creativecommons.org/ns#" xmlns:xlink="http://www.w3.org/1999/xlink" xmlns:dc="http://purl.org/dc/elements/1.1/">
 <defs>
  <radialGradient id="radialGradient4701" gradientUnits="userSpaceOnUse" cy="489.51" cx="282.86" r="66.714">
   <stop stop-color="#000" stop-opacity=".18487" offset="0"/>
   <stop stop-color="#000" stop-opacity=".53782" offset="1"/>
  </radialGradient>
 </defs>
 <g transform="translate(-287.97 45.379)">
  <g stroke-linejoin="miter" stroke-opacity=".53947" fill-rule="nonzero" stroke-dashoffset="0" stroke="#00007d" stroke-linecap="round" stroke-miterlimit="4" stroke-dasharray="none" fill="url(#radialGradient4701)">
   <path style="enable-background:accumulate;color:#000000;" d="m348.57 489.51c0 36.293-29.421 65.714-65.714 65.714s-65.714-29.421-65.714-65.714 29.421-65.714 65.714-65.714 65.714 29.421 65.714 65.714z" transform="translate(93.714 -200)" stroke-width="2"/>
   <g stroke-width="2">
    <path style="enable-background:accumulate;color:#000000;" d="m348.57 489.51c0 36.293-29.421 65.714-65.714 65.714s-65.714-29.421-65.714-65.714 29.421-65.714 65.714-65.714 65.714 29.421 65.714 65.714z" transform="matrix(-.86603 -.5 .5 -.86603 869.35 854.86)"/>
    <path style="enable-background:accumulate;color:#000000;" d="m348.57 489.51c0 36.293-29.421 65.714-65.714 65.714s-65.714-29.421-65.714-65.714 29.421-65.714 65.714-65.714 65.714 29.421 65.714 65.714z" transform="matrix(-.5 .86603 -.86603 -.5 1311.4 76.006)"/>
    <path style="enable-background:accumulate;color:#000000;" d="m348.57 489.51c0 36.293-29.421 65.714-65.714 65.714s-65.714-29.421-65.714-65.714 29.421-65.714 65.714-65.714 65.714 29.421 65.714 65.714z" transform="matrix(.5 .86603 -.86603 .5 782.21 -413.5)"/>
    <path style="enable-background:accumulate;color:#000000;" d="m348.57 489.51c0 36.293-29.421 65.714-65.714 65.714s-65.714-29.421-65.714-65.714 29.421-65.714 65.714-65.714 65.714 29.421 65.714 65.714z" transform="matrix(-.5 -.86603 .86603 -.5 463.5 992.51)"/>
    <path style="enable-background:accumulate;color:#000000;" d="m348.57 489.51c0 36.293-29.421 65.714-65.714 65.714s-65.714-29.421-65.714-65.714 29.421-65.714 65.714-65.714 65.714 29.421 65.714 65.714z" transform="matrix(.5 -.86603 .86603 .5 -65.638 503)"/>
   </g>
  </g>
  <g font-size="144px" font-style="normal" fill="#000000">
   <text style="writing-mode:tb-rl;letter-spacing:0px;word-spacing:0px;" font-weight="normal" xml:space="preserve" y="127.96537" x="752.04694" font-family="Sans" line-height="125%"><tspan style="writing-mode:lr-tb;text-anchor:middle;text-align:center;" font-weight="bold" font-style="normal" font-stretch="normal" font-variant="normal" y="127.96537" x="752.04694" font-family="Arial">1</tspan></text>
   <text style="writing-mode:tb-rl;letter-spacing:0px;word-spacing:0px;" line-height="125%" font-weight="bold" font-variant="normal" font-stretch="normal" y="127.96533" x="501.57755" font-family="Arial" xml:space="preserve"><tspan style="writing-mode:lr-tb;text-anchor:middle;text-align:center;" y="127.96533" x="501.57755">2</tspan><tspan style="writing-mode:lr-tb;text-anchor:middle;text-align:center;" y="307.96533" x="501.57755"/></text>
   <text style="writing-mode:tb-rl;letter-spacing:0px;word-spacing:0px;" line-height="125%" font-weight="normal" y="340.37613" x="376.57144" font-family="Sans" xml:space="preserve"><tspan style="writing-mode:lr-tb;text-anchor:middle;text-align:center;" font-weight="bold" font-style="normal" font-stretch="normal" font-variant="normal" y="340.37613" x="376.57144" font-family="Arial">3</tspan></text>
   <text style="writing-mode:tb-rl;letter-spacing:0px;word-spacing:0px;" line-height="125%" font-weight="normal" y="554.54474" x="499.71426" font-family="Sans" xml:space="preserve"><tspan style="writing-mode:lr-tb;text-anchor:middle;text-align:center;" font-weight="bold" font-style="normal" font-stretch="normal" font-variant="normal" y="554.54474" x="499.71426" font-family="Arial">4</tspan></text>
   <text style="writing-mode:tb-rl;letter-spacing:0px;word-spacing:0px;" line-height="125%" font-weight="normal" y="552.75177" x="745.01562" font-family="Sans" xml:space="preserve"><tspan style="writing-mode:lr-tb;text-anchor:middle;text-align:center;" font-weight="bold" font-style="normal" font-stretch="normal" font-variant="normal" y="552.75177" x="745.01562" font-family="Arial">5</tspan></text>
   <text style="writing-mode:tb-rl;letter-spacing:0px;word-spacing:0px;" line-height="125%" font-weight="normal" y="340.37616" x="868.68579" font-family="Sans" xml:space="preserve"><tspan style="writing-mode:lr-tb;text-anchor:middle;text-align:center;" font-weight="bold" font-style="normal" font-stretch="normal" font-variant="normal" y="340.37616" x="868.68579" font-family="Arial">6</tspan></text>
  </g>
 </g>
</svg>
