<?xml version="1.0" encoding="UTF-8" standalone="no"?>
<svg xmlns:rdf="http://www.w3.org/1999/02/22-rdf-syntax-ns#" xmlns="http://www.w3.org/2000/svg" viewBox="0 0 669.76 669.76" version="1.1" xmlns:cc="http://creativecommons.org/ns#" xmlns:xlink="http://www.w3.org/1999/xlink" xmlns:dc="http://purl.org/dc/elements/1.1/">
 <defs>
  <radialGradient id="radialGradient4701" gradientUnits="userSpaceOnUse" cy="489.51" cx="282.86" r="66.714">
   <stop stop-color="#000" stop-opacity=".18487" offset="0"/>
   <stop stop-color="#000" stop-opacity=".53782" offset="1"/>
  </radialGradient>
 </defs>
 <g display="none" transform="translate(-287.97 45.379)">
  <g stroke-linejoin="miter" stroke-opacity=".53947" fill-rule="nonzero" stroke-dashoffset="0" stroke="#00007d" stroke-linecap="round" stroke-miterlimit="4" stroke-dasharray="none" stroke-width="2" fill="url(#radialGradient4701)">
   <path style="color:#000000;enable-background:accumulate;" d="m348.57 489.51a65.714 65.714 0 1 1 -131.43 0 65.714 65.714 0 1 1 131.43 0z" transform="translate(93.714 -200)"/>
   <path style="color:#000000;enable-background:accumulate;" d="m348.57 489.51a65.714 65.714 0 1 1 -131.43 0 65.714 65.714 0 1 1 131.43 0z" transform="matrix(-.86603 -.5 .5 -.86603 869.35 854.86)"/>
   <path style="color:#000000;enable-background:accumulate;" d="m348.57 489.51a65.714 65.714 0 1 1 -131.43 0 65.714 65.714 0 1 1 131.43 0z" transform="matrix(-.5 .86603 -.86603 -.5 1311.4 76.006)"/>
   <path style="color:#000000;enable-background:accumulate;" d="m348.57 489.51a65.714 65.714 0 1 1 -131.43 0 65.714 65.714 0 1 1 131.43 0z" transform="matrix(.5 .86603 -.86603 .5 782.21 -413.5)"/>
   <path style="color:#000000;enable-background:accumulate;" d="m348.57 489.51a65.714 65.714 0 1 1 -131.43 0 65.714 65.714 0 1 1 131.43 0z" transform="matrix(-.5 -.86603 .86603 -.5 463.5 992.51)"/>
   <path style="color:#000000;enable-background:accumulate;" d="m348.57 489.51a65.714 65.714 0 1 1 -131.43 0 65.714 65.714 0 1 1 131.43 0z" transform="matrix(.5 -.86603 .86603 .5 -65.638 503)"/>
  </g>
  <g font-size="144px" font-style="normal" fill="#000000">
   <text style="word-spacing:0px;letter-spacing:0px;writing-mode:tb-rl;" font-family="Sans" xml:space="preserve" line-height="125%" y="127.96537" x="752.04694" font-weight="normal"><tspan style="writing-mode:lr-tb;text-anchor:middle;text-align:center;" font-family="Arial" font-style="normal" font-stretch="normal" font-variant="normal" y="127.96537" x="752.04694" font-weight="bold">1</tspan></text>
   <text style="word-spacing:0px;letter-spacing:0px;writing-mode:tb-rl;" font-family="Arial" xml:space="preserve" line-height="125%" y="127.96533" font-stretch="normal" font-variant="normal" x="501.57755" font-weight="bold"><tspan y="127.96533" x="501.57755" style="writing-mode:lr-tb;text-anchor:middle;text-align:center;">2</tspan><tspan y="307.96533" x="501.57755" style="writing-mode:lr-tb;text-anchor:middle;text-align:center;"/></text>
   <g font-family="Sans" font-weight="normal">
    <text style="word-spacing:0px;letter-spacing:0px;writing-mode:tb-rl;" line-height="125%" xml:space="preserve" y="340.37613" x="376.57144"><tspan style="writing-mode:lr-tb;text-anchor:middle;text-align:center;" font-family="Arial" font-style="normal" font-stretch="normal" font-variant="normal" y="340.37613" x="376.57144" font-weight="bold">3</tspan></text>
    <text style="word-spacing:0px;letter-spacing:0px;writing-mode:tb-rl;" line-height="125%" xml:space="preserve" y="554.54474" x="499.71426"><tspan style="writing-mode:lr-tb;text-anchor:middle;text-align:center;" font-family="Arial" font-style="normal" font-stretch="normal" font-variant="normal" y="554.54474" x="499.71426" font-weight="bold">4</tspan></text>
    <text style="word-spacing:0px;letter-spacing:0px;writing-mode:tb-rl;" line-height="125%" xml:space="preserve" y="552.75177" x="745.01562"><tspan style="writing-mode:lr-tb;text-anchor:middle;text-align:center;" font-family="Arial" font-style="normal" font-stretch="normal" font-variant="normal" y="552.75177" x="745.01562" font-weight="bold">5</tspan></text>
    <text style="word-spacing:0px;letter-spacing:0px;writing-mode:tb-rl;" line-height="125%" xml:space="preserve" y="340.37616" x="868.68579"><tspan style="writing-mode:lr-tb;text-anchor:middle;text-align:center;" font-family="Arial" font-style="normal" font-stretch="normal" font-variant="normal" y="340.37616" x="868.68579" font-weight="bold">6</tspan></text>
   </g>
  </g>
 </g>
 <g stroke-linejoin="miter" stroke-opacity=".36667" transform="translate(-287.97 45.379)" stroke="#0050d9" stroke-linecap="round" stroke-dasharray="none" stroke-miterlimit="4" stroke-width="64" fill="none">
  <path d="m499.71 76.215 246.29-.000071"/>
  <path d="m376.57 289.51 123.14 213.28"/>
  <path d="m869.14 289.51-123.14 213.28"/>
 </g>
</svg>
