<?xml version="1.0" encoding="UTF-8" standalone="no"?>
<svg xmlns:rdf="http://www.w3.org/1999/02/22-rdf-syntax-ns#" xmlns="http://www.w3.org/2000/svg" height="669.76" width="669.76" version="1.1" xmlns:cc="http://creativecommons.org/ns#" xmlns:xlink="http://www.w3.org/1999/xlink" xmlns:dc="http://purl.org/dc/elements/1.1/">
 <defs>
  <linearGradient id="linearGradient4395">
   <stop stop-color="#000" stop-opacity=".18487" offset="0"/>
   <stop stop-color="#000" stop-opacity=".53782" offset="1"/>
  </linearGradient>
  <radialGradient id="radialGradient4693" xlink:href="#linearGradient4395" gradientUnits="userSpaceOnUse" cy="489.51" cx="282.86" r="66.714"/>
  <radialGradient id="radialGradient4701-1" gradientUnits="userSpaceOnUse" cy="489.51" cx="282.86" r="66.714">
   <stop stop-color="#000" stop-opacity=".18487" offset="0"/>
   <stop stop-color="#000" stop-opacity=".53782" offset="1"/>
  </radialGradient>
 </defs>
 <g transform="translate(-287.97 45.379)">
  <path stroke-linejoin="miter" style="enable-background:accumulate;color:#000000;" d="m348.57 489.51c0 36.293-29.421 65.714-65.714 65.714s-65.714-29.421-65.714-65.714 29.421-65.714 65.714-65.714 65.714 29.421 65.714 65.714z" stroke-opacity=".53947" fill-rule="nonzero" transform="matrix(-.38268 -.92388 .92388 -.38268 373.11 965.69)" stroke-dashoffset="0" stroke="#00007d" stroke-linecap="round" stroke-miterlimit="4" stroke-dasharray="none" stroke-width="2" fill="url(#radialGradient4701-1)"/>
  <g stroke-linejoin="miter" stroke-opacity=".53947" stroke-dashoffset="0" stroke="#00007d" stroke-linecap="round" stroke-miterlimit="4" stroke-dasharray="none" stroke-width="2" fill="url(#radialGradient4693)">
   <path style="enable-background:accumulate;color:#000000;" d="m348.57 489.51c0 36.293-29.421 65.714-65.714 65.714s-65.714-29.421-65.714-65.714 29.421-65.714 65.714-65.714 65.714 29.421 65.714 65.714z" fill-rule="nonzero" transform="matrix(-.99144 -.13053 .13053 -.99144 1066.9 717.49)"/>
   <path style="enable-background:accumulate;color:#000000;" d="m348.57 489.51c0 36.293-29.421 65.714-65.714 65.714s-65.714-29.421-65.714-65.714 29.421-65.714 65.714-65.714 65.714 29.421 65.714 65.714z" transform="matrix(.38268 .92388 -.92388 .38268 872.61 -386.68)"/>
   <path style="enable-background:accumulate;color:#000000;" d="m348.57 489.51c0 36.293-29.421 65.714-65.714 65.714s-65.714-29.421-65.714-65.714 29.421-65.714 65.714-65.714 65.714 29.421 65.714 65.714z" fill-rule="nonzero" transform="matrix(.92388 -.38268 .38268 .92388 -53.333 39.756)"/>
  </g>
  <path stroke-linejoin="miter" style="enable-background:accumulate;color:#000000;" d="m348.57 489.51c0 36.293-29.421 65.714-65.714 65.714s-65.714-29.421-65.714-65.714 29.421-65.714 65.714-65.714 65.714 29.421 65.714 65.714z" stroke-opacity=".53947" fill-rule="nonzero" transform="matrix(.92388 .38268 -.38268 .92388 321.32 -365.23)" stroke-dashoffset="0" stroke="#00007d" stroke-linecap="round" stroke-miterlimit="4" stroke-dasharray="none" stroke-width="2" fill="url(#radialGradient4701-1)"/>
  <g stroke-linejoin="miter" stroke-opacity=".53947" stroke-dashoffset="0" stroke="#00007d" stroke-linecap="round" stroke-miterlimit="4" stroke-dasharray="none" stroke-width="2" fill="url(#radialGradient4693)">
   <path style="enable-background:accumulate;color:#000000;" d="m348.57 489.51c0 36.293-29.421 65.714-65.714 65.714s-65.714-29.421-65.714-65.714 29.421-65.714 65.714-65.714 65.714 29.421 65.714 65.714z" transform="matrix(-.38268 .92388 -.92388 -.38268 1277.6 -12.034)"/>
   <path style="enable-background:accumulate;color:#000000;" d="m348.57 489.51c0 36.293-29.421 65.714-65.714 65.714s-65.714-29.421-65.714-65.714 29.421-65.714 65.714-65.714 65.714 29.421 65.714 65.714z" fill-rule="nonzero" transform="matrix(-.92388 -.38268 .38268 -.92388 924.4 944.24)"/>
   <path style="enable-background:accumulate;color:#000000;" d="m348.57 489.51c0 36.293-29.421 65.714-65.714 65.714s-65.714-29.421-65.714-65.714 29.421-65.714 65.714-65.714 65.714 29.421 65.714 65.714z" fill-rule="nonzero" transform="matrix(.38268 -.92388 .92388 .38268 -31.881 591.04)"/>
  </g>
  <g font-size="144px" font-style="normal" fill="#000000">
   <text style="writing-mode:tb-rl;letter-spacing:0px;word-spacing:0px;" font-weight="normal" xml:space="preserve" y="113.71673" x="723.15356" font-family="Sans" line-height="125%"><tspan style="writing-mode:lr-tb;text-anchor:middle;text-align:center;" font-weight="bold" font-style="normal" font-stretch="normal" font-variant="normal" y="113.71673" x="723.15356" font-family="Arial">7</tspan></text>
   <text style="writing-mode:tb-rl;letter-spacing:0px;word-spacing:0px;" line-height="125%" font-weight="bold" font-variant="normal" font-stretch="normal" y="113.71671" x="530.47101" font-family="Arial" xml:space="preserve"><tspan style="writing-mode:lr-tb;text-anchor:middle;text-align:center;" y="113.71671" x="530.47101">8</tspan><tspan style="writing-mode:lr-tb;text-anchor:middle;text-align:center;" y="293.71671" x="530.47101"/></text>
   <text style="writing-mode:tb-rl;letter-spacing:0px;word-spacing:0px;" line-height="125%" font-weight="normal" y="246.12666" x="395.74069" font-family="Sans" xml:space="preserve"><tspan style="writing-mode:lr-tb;text-anchor:middle;text-align:center;" font-weight="bold" font-style="normal" font-stretch="normal" font-variant="normal" y="246.12666" x="395.74069" font-family="Arial">1</tspan></text>
   <text style="writing-mode:tb-rl;letter-spacing:0px;word-spacing:0px;" line-height="125%" font-weight="normal" y="435.50449" x="395.67038" font-family="Sans" xml:space="preserve"><tspan style="writing-mode:lr-tb;text-anchor:middle;text-align:center;" font-weight="bold" font-style="normal" font-stretch="normal" font-variant="normal" y="435.50449" x="395.67038" font-family="Arial">2</tspan></text>
   <text style="writing-mode:tb-rl;letter-spacing:0px;word-spacing:0px;" line-height="125%" font-weight="normal" y="567.00043" x="527.62329" font-family="Sans" xml:space="preserve"><tspan style="writing-mode:lr-tb;text-anchor:middle;text-align:center;" font-weight="bold" font-style="normal" font-stretch="normal" font-variant="normal" y="567.00043" x="527.62329" font-family="Arial">3</tspan></text>
   <text style="writing-mode:tb-rl;letter-spacing:0px;word-spacing:0px;" line-height="125%" font-weight="normal" y="567.91449" x="716.6496" font-family="Sans" xml:space="preserve"><tspan style="writing-mode:lr-tb;text-anchor:middle;text-align:center;" font-weight="bold" font-style="normal" font-stretch="normal" font-variant="normal" y="567.91449" x="716.6496" font-family="Arial">4</tspan></text>
   <text style="writing-mode:tb-rl;letter-spacing:0px;word-spacing:0px;" line-height="125%" font-weight="normal" y="434.59048" x="850.57123" font-family="Sans" xml:space="preserve"><tspan style="writing-mode:lr-tb;text-anchor:middle;text-align:center;" font-weight="bold" font-style="normal" font-stretch="normal" font-variant="normal" y="434.59048" x="850.57123" font-family="Arial">5</tspan></text>
   <text style="writing-mode:tb-rl;letter-spacing:0px;word-spacing:0px;" line-height="125%" font-weight="normal" y="246.09154" x="850.74701" font-family="Sans" xml:space="preserve"><tspan style="writing-mode:lr-tb;text-anchor:middle;text-align:center;" font-weight="bold" font-style="normal" font-stretch="normal" font-variant="normal" y="246.09154" x="850.74701" font-family="Arial">6</tspan></text>
  </g>
 </g>
</svg>
