<?xml version="1.0" encoding="UTF-8" standalone="no"?>
<svg xmlns:rdf="http://www.w3.org/1999/02/22-rdf-syntax-ns#" xmlns="http://www.w3.org/2000/svg" width="100%" version="1.1" xmlns:cc="http://creativecommons.org/ns#" height="100%" viewBox="0 0 669.76 669.76" xmlns:dc="http://purl.org/dc/elements/1.1/">
 <g stroke-linejoin="miter" stroke-dasharray="none" stroke-linecap="round" stroke-miterlimit="4" fill="none">
  <g stroke-opacity=".53947" display="none" stroke-dashoffset="0" transform="translate(-287.97 45.379)" stroke="#00007d">
   <path d="m348.57 489.51a65.714 65.714 0 1 1 -131.43 0 65.714 65.714 0 1 1 131.43 0z" style="color:#000000;enable-background:accumulate;" stroke-width="2" transform="matrix(0 -1 1 0 133.35 818.65)"/>
   <path d="m348.57 489.51a65.714 65.714 0 1 1 -131.43 0 65.714 65.714 0 1 1 131.43 0z" style="color:#000000;enable-background:accumulate;" stroke-width="2" transform="matrix(-.86603 -.5 .5 -.86603 869.35 854.86)"/>
   <path d="m997.14 289.51a374.29 374.29 0 1 1 -748.57 0 374.29 374.29 0 1 1 748.57 0z" style="color:#000000;enable-background:accumulate;" stroke-width="2.242" transform="matrix(.89204 0 0 .89204 67.241 31.254)"/>
   <g stroke-width="2">
    <path d="m348.57 489.51a65.714 65.714 0 1 1 -131.43 0 65.714 65.714 0 1 1 131.43 0z" style="color:#000000;enable-background:accumulate;" transform="matrix(0 1 -1 0 1112.4 -239.64)"/>
    <path d="m348.57 489.51a65.714 65.714 0 1 1 -131.43 0 65.714 65.714 0 1 1 131.43 0z" style="color:#000000;enable-background:accumulate;" transform="translate(93.714 -200)"/>
    <path d="m348.57 489.51a65.714 65.714 0 1 1 -131.43 0 65.714 65.714 0 1 1 131.43 0z" style="color:#000000;enable-background:accumulate;" transform="matrix(.70711 .70711 -.70711 .70711 594.83 -430.79)"/>
    <path d="m348.57 489.51a65.714 65.714 0 1 1 -131.43 0 65.714 65.714 0 1 1 131.43 0z" style="color:#000000;enable-background:accumulate;" transform="matrix(-.70711 .70711 -.70711 -.70711 1343.2 261.48)"/>
    <path d="m348.57 489.51a65.714 65.714 0 1 1 -131.43 0 65.714 65.714 0 1 1 131.43 0z" style="color:#000000;enable-background:accumulate;" transform="matrix(-.70711 -.70711 .70711 -.70711 650.89 1009.8)"/>
    <path d="m348.57 489.51a65.714 65.714 0 1 1 -131.43 0 65.714 65.714 0 1 1 131.43 0z" style="color:#000000;enable-background:accumulate;" transform="matrix(.70711 -.70711 .70711 .70711 -97.436 317.53)"/>
    <path d="m348.57 489.51a65.714 65.714 0 1 1 -131.43 0 65.714 65.714 0 1 1 131.43 0z" style="color:#000000;enable-background:accumulate;" transform="matrix(.70711 -.70711 .70711 .70711 76.715 143.38)"/>
   </g>
  </g>
  <g stroke-opacity=".36667" stroke="#0050d9" stroke-width="64">
   <path d="m334.89 334.88v-246.29"/>
   <path d="m88.605 334.88 72.135-174.15"/>
   <path d="m580.74 340.73-72.13 174.15"/>
   <path d="m334.89 581.17-174.15-72.14"/>
  </g>
 </g>
</svg>
