<?xml version="1.0" encoding="UTF-8" standalone="no"?>
<svg xmlns:rdf="http://www.w3.org/1999/02/22-rdf-syntax-ns#" xmlns="http://www.w3.org/2000/svg" height="1066.7" width="857.03" version="1.1" xmlns:cc="http://creativecommons.org/ns#" xmlns:xlink="http://www.w3.org/1999/xlink" xmlns:dc="http://purl.org/dc/elements/1.1/">
 <defs>
  <linearGradient id="linearGradient4352">
   <stop stop-color="#999" offset="0"/>
   <stop stop-color="#2b2b2b" offset="1"/>
  </linearGradient>
  <radialGradient id="radialGradient4358" xlink:href="#linearGradient4352" gradientUnits="userSpaceOnUse" cy="0" cx="-8.5265e-14" gradientTransform="scale(1 .99903)" r="350.54"/>
  <filter id="filter4541" height="1" width="1" color-interpolation-filters="sRGB" y="0" x="0">
   <feGaussianBlur result="result0" stdDeviation="2.3" in="SourceAlpha"/>
   <feMorphology result="result1" radius="6.6" in="SourceAlpha"/>
   <feGaussianBlur stdDeviation="8.9" in="result1"/>
   <feColorMatrix values="1 0 0 0 0 0 1 0 0 0 0 0 1 0 0 0 0 0 0.3 0" result="result91"/>
   <feComposite operator="out" result="result2" in2="result91" in="result0"/>
   <feGaussianBlur stdDeviation="1.7" result="result4"/>
   <feDiffuseLighting result="result92" surfaceScale="10">
    <feDistantLight elevation="45" azimuth="225"/>
   </feDiffuseLighting>
   <feBlend result="result93" in2="SourceGraphic" mode="multiply"/>
   <feComposite operator="in" in2="SourceAlpha" result="result3"/>
   <feSpecularLighting result="result94" surfaceScale="5" specularExponent="17.89999962" in="result4">
    <feDistantLight elevation="45" azimuth="225"/>
   </feSpecularLighting>
   <feComposite operator="atop" in2="result3"/>
  </filter>
  <filter id="filter4639" height="1" width="1" color-interpolation-filters="sRGB" y="0" x="0">
   <feGaussianBlur result="result0" stdDeviation="2.3" in="SourceAlpha"/>
   <feMorphology result="result1" radius="6.6" in="SourceAlpha"/>
   <feGaussianBlur stdDeviation="8.9" in="result1"/>
   <feColorMatrix values="1 0 0 0 0 0 1 0 0 0 0 0 1 0 0 0 0 0 0.3 0" result="result91"/>
   <feComposite operator="out" result="result2" in2="result91" in="result0"/>
   <feGaussianBlur stdDeviation="1.7" result="result4"/>
   <feDiffuseLighting result="result92" surfaceScale="10">
    <feDistantLight elevation="45" azimuth="225"/>
   </feDiffuseLighting>
   <feBlend result="result93" in2="SourceGraphic" mode="multiply"/>
   <feComposite operator="in" in2="SourceAlpha" result="result3"/>
   <feSpecularLighting result="result94" surfaceScale="5" specularExponent="17.89999962" in="result4">
    <feDistantLight elevation="45" azimuth="225"/>
   </feSpecularLighting>
   <feComposite operator="atop" in2="result3"/>
  </filter>
  <filter id="filter4667" height="1" width="1" color-interpolation-filters="sRGB" y="0" x="0">
   <feGaussianBlur result="result0" stdDeviation="2.3" in="SourceAlpha"/>
   <feMorphology result="result1" radius="6.6" in="SourceAlpha"/>
   <feGaussianBlur stdDeviation="8.9" in="result1"/>
   <feColorMatrix values="1 0 0 0 0 0 1 0 0 0 0 0 1 0 0 0 0 0 0.3 0" result="result91"/>
   <feComposite operator="out" result="result2" in2="result91" in="result0"/>
   <feGaussianBlur stdDeviation="1.7" result="result4"/>
   <feDiffuseLighting result="result92" surfaceScale="10">
    <feDistantLight elevation="45" azimuth="225"/>
   </feDiffuseLighting>
   <feBlend result="result93" in2="SourceGraphic" mode="multiply"/>
   <feComposite operator="in" in2="SourceAlpha" result="result3"/>
   <feSpecularLighting result="result94" surfaceScale="5" specularExponent="17.89999962" in="result4">
    <feDistantLight elevation="45" azimuth="225"/>
   </feSpecularLighting>
   <feComposite operator="atop" in2="result3"/>
  </filter>
 </defs>
 <g transform="translate(-114.21 166.32)">
  <g fill="url(#radialGradient4358)">
   <g transform="translate(620.71 550.18)" filter="url(#filter4541)">
    <path fill="url(#radialGradient4358)" stroke="#000" d="m318.06-12.473 10.83-.424 5.097.4 16.044 3.946v17.102l-16.044 3.946-5.097.4-10.83-.424-1.693 22.599 10.772 1.194 4.98 1.155 15.277 6.293-2.549 16.912-16.453 1.51-5.1-.363-10.645-2.034-5.043 22.094 10.474 2.786 4.752 1.885 14.169 8.5-5.041 16.343-16.495-.959-4.988-1.12-10.224-3.598-8.279 21.096 9.941 4.316 4.418 2.572 12.744 10.517-7.42 15.409-16.168-3.407-4.766-1.851-9.573-5.081-11.331 19.626 9.187 5.75 3.986 3.202 11.034 12.298-9.635 14.131-15.479-5.778-4.437-2.541-8.708-6.451-14.13 17.718 8.227 7.055 3.464 3.76 9.078 13.806-11.633 12.537-14.445-8.021-4.008-3.173-7.65-7.677-16.613 15.414 7.084 8.202 2.865 4.234 6.919 15.005-13.372 10.663-13.088-10.084-3.491-3.735-6.42-8.732-18.725 12.766 5.783 9.167 2.202 4.614 4.605 15.868-14.812 8.551-11.439-11.922-2.895-4.214-5.047-9.591-20.418 9.833 4.352 9.926 1.489 4.89 2.189 16.378-15.921 6.248-9.534-13.494-2.235-4.598-3.561-10.236-21.656 6.679 2.824 10.464.744 5.058-.277 16.52-16.674 3.806-7.417-14.764-1.524-4.88-1.996-10.653-22.409 3.378 1.233 10.767-.019 5.113-2.735 16.295-17.055 1.278-5.134-15.705-.78-5.053-.386-10.831h-22.662l-.386 10.831-.78 5.053-5.134 15.705-17.055-1.278-2.735-16.295-.019-5.113 1.233-10.767-22.409-3.378-1.996 10.653-1.524 4.88-7.417 14.764-16.674-3.806-.277-16.52.744-5.058 2.824-10.464-21.656-6.679-3.561 10.236-2.235 4.598-9.534 13.494-15.921-6.248 2.189-16.378 1.489-4.89 4.352-9.926-20.418-9.833-5.047 9.591-2.895 4.214-11.439 11.922-14.812-8.551 4.605-15.868 2.202-4.614 5.783-9.167-18.725-12.766-6.42 8.732-3.491 3.735-13.088 10.084-13.372-10.663 6.919-15.005 2.865-4.234 7.084-8.202-16.613-15.414-7.65 7.677-4.008 3.173-14.445 8.021-11.633-12.537 9.078-13.806 3.464-3.76 8.227-7.055-14.13-17.718-8.708 6.451-4.437 2.541-15.479 5.778-9.635-14.131 11.034-12.298 3.986-3.202 9.187-5.75-11.331-19.626-9.573 5.081-4.766 1.851-16.168 3.407-7.42-15.409 12.744-10.517 4.418-2.572 9.941-4.316-8.279-21.096-10.224 3.598-4.988 1.12-16.495.959-5.041-16.343 14.169-8.5 4.752-1.885 10.474-2.786-5.043-22.094-10.645 2.034-5.1.363-16.453-1.51-2.549-16.912 15.277-6.293 4.98-1.155 10.772-1.194-1.693-22.599-10.83.424-5.097-.4-16.044-3.946v-17.102l16.044-3.946 5.097-.4 10.83.424 1.693-22.599-10.772-1.194-4.98-1.155-15.277-6.293 2.549-16.912 16.453-1.51 5.1.363 10.645 2.034 5.043-22.094-10.474-2.786-4.752-1.885-14.169-8.5 5.041-16.343 16.495.959 4.988 1.12 10.224 3.598 8.279-21.096-9.941-4.316-4.418-2.572-12.744-10.517 7.42-15.409 16.168 3.407 4.766 1.851 9.573 5.081 11.331-19.626-9.187-5.75-3.986-3.202-11.034-12.298 9.635-14.131 15.479 5.778 4.437 2.541 8.708 6.451 14.13-17.718-8.227-7.055-3.464-3.76-9.078-13.806 11.633-12.537 14.445 8.021 4.008 3.173 7.65 7.677 16.613-15.414-7.084-8.202-2.865-4.234-6.919-15.005 13.372-10.663 13.088 10.084 3.491 3.735 6.42 8.732 18.725-12.766-5.783-9.167-2.202-4.614-4.605-15.868 14.812-8.551 11.439 11.922 2.895 4.214 5.047 9.591 20.418-9.833-4.352-9.926-1.489-4.89-2.189-16.378 15.921-6.248 9.534 13.494 2.235 4.598 3.561 10.236 21.656-6.679-2.824-10.464-.744-5.058.277-16.52 16.674-3.806 7.417 14.764 1.524 4.88 1.996 10.653 22.409-3.378-1.233-10.767.019-5.113 2.735-16.295 17.055-1.278 5.134 15.705.78 5.053.386 10.831h22.662l.386-10.831.78-5.053 5.134-15.705 17.055 1.278 2.735 16.295.019 5.113-1.233 10.767 22.409 3.378 1.996-10.653 1.524-4.88 7.417-14.764 16.674 3.806.277 16.52-.744 5.058-2.824 10.464 21.656 6.679 3.561-10.236 2.235-4.598 9.534-13.494 15.921 6.248-2.189 16.378-1.489 4.89-4.352 9.926 20.418 9.833 5.047-9.591 2.895-4.214 11.439-11.922 14.812 8.551-4.605 15.868-2.202 4.614-5.783 9.167 18.725 12.766 6.42-8.732 3.491-3.735 13.088-10.084 13.372 10.663-6.919 15.005-2.865 4.234-7.084 8.202 16.613 15.414 7.65-7.677 4.008-3.173 14.445-8.021 11.633 12.537-9.078 13.806-3.464 3.76-8.227 7.055 14.13 17.718 8.708-6.451 4.437-2.541 15.479-5.778 9.635 14.131-11.034 12.298-3.986 3.202-9.187 5.75 11.331 19.626 9.573-5.081 4.766-1.851 16.168-3.407 7.42 15.409-12.744 10.517-4.418 2.572-9.941 4.316 8.279 21.096 10.224-3.598 4.988-1.12 16.495-.959 5.041 16.343-14.169 8.5-4.752 1.885-10.474 2.786 5.043 22.094 10.645-2.034 5.1-.363 16.453 1.51 2.549 16.912-15.277 6.293-4.98 1.155-10.772 1.194z"/>
   </g>
   <g stroke-linejoin="miter" style="enable-background:accumulate;color:#000000;" fill-rule="nonzero" transform="matrix(.99735 .072817 -.072817 .99735 226.14 204.36)" stroke-dashoffset="0" filter="url(#filter4667)" stroke="#000" stroke-linecap="butt" stroke-miterlimit="4" stroke-dasharray="none" stroke-width="1">
    <path stroke-linejoin="miter" style="enable-background:accumulate;color:#000000;" d="m78.878-10.528 14.337-1.914 1.461-.022 16.509 5.405v14.118l-16.509 5.405-1.461-.022-14.337-1.914-5.303 19.793 13.373 5.511 1.276.712 11.594 12.935-7.059 12.227-16.999-3.574-1.254-.749-11.46-8.826-14.489 14.489 8.826 11.46.749 1.254 3.574 16.999-12.227 7.059-12.935-11.594-.712-1.276-5.511-13.373-19.793 5.303 1.914 14.337.022 1.461-5.405 16.509h-14.118l-5.405-16.509.022-1.461 1.914-14.337-19.793-5.303-5.511 13.373-.712 1.276-12.935 11.594-12.227-7.059 3.574-16.999.749-1.254 8.826-11.46-14.489-14.489-11.46 8.826-1.254.749-16.999 3.574-7.059-12.227 11.594-12.935 1.276-.712 13.373-5.511-5.303-19.793-14.337 1.914-1.461.022-16.509-5.405v-14.118l16.509-5.405 1.461.022 14.337 1.914 5.303-19.793-13.373-5.511-1.276-.712-11.594-12.935 7.059-12.227 16.999 3.574 1.254.749 11.46 8.826 14.489-14.489-8.826-11.46-.749-1.254-3.574-16.999 12.227-7.059 12.935 11.594.712 1.276 5.511 13.373 19.793-5.303-1.914-14.337-.022-1.461 5.405-16.509h14.118l5.405 16.509-.022 1.461-1.914 14.337 19.793 5.303 5.511-13.373.712-1.276 12.935-11.594 12.227 7.059-3.574 16.999-.749 1.254-8.826 11.46 14.489 14.489 11.46-8.826 1.254-.749 16.999-3.574 7.059 12.227-11.594 12.935-1.276.712-13.373 5.511z" fill-rule="nonzero" stroke-dashoffset="0" stroke="#000" stroke-linecap="butt" stroke-miterlimit="4" stroke-dasharray="none" stroke-width="1" fill="url(#radialGradient4358)"/>
   </g>
   <g stroke-linejoin="miter" style="enable-background:accumulate;color:#000000;" fill-rule="nonzero" transform="translate(472.14 40.934)" stroke-dashoffset="0" filter="url(#filter4639)" stroke="#000" stroke-linecap="butt" stroke-miterlimit="4" stroke-dasharray="none" stroke-width="1">
    <path stroke-linejoin="miter" style="enable-background:accumulate;color:#000000;" d="m174.68-11.764 12.984-.874 2.918.147 16.17 4.493v15.996l-16.17 4.493-2.918.147-12.984-.874-2.907 22.082 12.768 2.516 2.78.898 14.456 8.524-4.14 15.452-16.782.154-2.856-.613-12.316-4.205-8.523 20.578 11.682 5.735 2.453 1.586 11.757 11.976-7.998 13.853-16.25-4.194-2.6-1.331-10.808-7.25-13.559 17.671 9.8 8.563 1.959 2.167 8.257 14.61-11.312 11.312-14.61-8.257-2.167-1.959-8.563-9.8-17.671 13.559 7.25 10.808 1.331 2.6 4.194 16.25-13.853 7.998-11.976-11.757-1.586-2.453-5.735-11.682-20.578 8.523 4.205 12.316.613 2.856-.154 16.782-15.452 4.14-8.524-14.456-.898-2.78-2.516-12.768-22.082 2.907.874 12.984-.147 2.918-4.493 16.17h-15.996l-4.493-16.17-.147-2.918.874-12.984-22.082-2.907-2.516 12.768-.898 2.78-8.524 14.456-15.452-4.14-.154-16.782.613-2.856 4.205-12.316-20.578-8.523-5.735 11.682-1.586 2.453-11.976 11.757-13.853-7.998 4.194-16.25 1.331-2.6 7.25-10.808-17.671-13.559-8.563 9.8-2.167 1.959-14.61 8.257-11.312-11.312 8.257-14.61 1.959-2.167 9.8-8.563-13.559-17.671-10.808 7.25-2.6 1.331-16.25 4.194-7.998-13.853 11.757-11.976 2.453-1.586 11.682-5.735-8.523-20.578-12.316 4.205-2.856.613-16.782-.154-4.14-15.452 14.456-8.524 2.78-.898 12.768-2.516-2.907-22.082-12.984.874-2.918-.147-16.17-4.493v-15.996l16.17-4.493 2.918-.147 12.984.874 2.907-22.082-12.768-2.516-2.78-.898-14.456-8.524 4.14-15.452 16.782-.154 2.856.613 12.316 4.205 8.523-20.578-11.682-5.735-2.453-1.586-11.757-11.976 7.998-13.853 16.25 4.194 2.6 1.331 10.808 7.25 13.559-17.671-9.8-8.563-1.959-2.167-8.257-14.61 11.312-11.312 14.61 8.257 2.167 1.959 8.563 9.8 17.671-13.559-7.25-10.808-1.331-2.6-4.194-16.25 13.853-7.998 11.976 11.757 1.586 2.453 5.735 11.682 20.578-8.523-4.205-12.316-.613-2.856.154-16.782 15.452-4.14 8.524 14.456.898 2.78 2.516 12.768 22.082-2.907-.874-12.984.147-2.918 4.493-16.17h15.996l4.493 16.17.147 2.918-.874 12.984 22.082 2.907 2.516-12.768.898-2.78 8.524-14.456 15.452 4.14.154 16.782-.613 2.856-4.205 12.316 20.578 8.523 5.735-11.682 1.586-2.453 11.976-11.757 13.853 7.998-4.194 16.25-1.331 2.6-7.25 10.808 17.671 13.559 8.563-9.8 2.167-1.959 14.61-8.257 11.312 11.312-8.257 14.61-1.959 2.167-9.8 8.563 13.559 17.671 10.808-7.25 2.6-1.331 16.25-4.194 7.998 13.853-11.757 11.976-2.453 1.586-11.682 5.735 8.523 20.578 12.316-4.205 2.856-.613 16.782.154 4.14 15.452-14.456 8.524-2.78.898-12.768 2.516z" fill-rule="nonzero" stroke-dashoffset="0" stroke="#000" stroke-linecap="butt" stroke-miterlimit="4" stroke-dasharray="none" stroke-width="1" fill="url(#radialGradient4358)"/>
   </g>
  </g>
  <g stroke-linejoin="miter" fill-rule="nonzero" stroke-dashoffset="0" stroke="#3a3a97" stroke-linecap="round" stroke-miterlimit="4" stroke-dasharray="none" stroke-width="3.7" fill="#fff">
   <path style="enable-background:accumulate;color:#000000;" d="m708.57 558.08c0 44.183-35.817 80-80 80s-80-35.817-80-80 35.817-80 80-80 80 35.817 80 80z" transform="translate(-7.8571 -7.8954)"/>
   <path style="enable-background:accumulate;color:#000000;" d="m708.57 558.08c0 44.183-35.817 80-80 80s-80-35.817-80-80 35.817-80 80-80 80 35.817 80 80z" transform="matrix(.63348 0 0 .63348 73.958 -312.59)"/>
   <path style="enable-background:accumulate;color:#000000;" d="m708.57 558.08c0 44.183-35.817 80-80 80s-80-35.817-80-80 35.817-80 80-80 80 35.817 80 80z" transform="matrix(.31931 0 0 .31931 25.432 26.162)"/>
  </g>
 </g>
</svg>
