<?xml version="1.0" encoding="UTF-8" standalone="no"?>
<!DOCTYPE svg
  PUBLIC '-//W3C//DTD SVG 1.1//EN'
  'http://www.w3.org/Graphics/SVG/1.1/DTD/svg11.dtd'>

<svg width="48pt" xmlns="http://www.w3.org/2000/svg" viewBox="0 0 256 256" height="48pt">
 <rect height="256" width="256" y="0" x="0" fill="none"/>
 <path opacity=".2" d="m116.73 22.158c0 .001 2.88 1.773 2.88 1.773 3.02 1.861 30.31 18.787 57.42 39.705 38.61 29.781 56.58 51.504 56.58 68.364s-17.98 38.58-56.58 68.36c-27.16 20.96-54.41 37.85-57.42 39.71l-2.88 1.77c-2.57 1.58-5.8 1.65-8.43.18s-4.26-4.26-4.26-7.27v-48.73h-69.328c-4.59 0-8.325-3.73-8.325-8.32v-91.398c0-4.59 3.734-8.325 8.325-8.325h69.328v-48.729c0-3.014 1.63-5.799 4.26-7.268 2.63-1.471 5.86-1.403 8.43.178z"/>
 <path opacity=".2" d="m115.73 20.158c0 .001 2.88 1.773 2.88 1.773 3.02 1.861 30.31 18.787 57.42 39.705 38.61 29.781 56.58 51.504 56.58 68.364s-17.98 38.58-56.58 68.36c-27.16 20.96-54.41 37.85-57.42 39.71l-2.88 1.77c-2.57 1.58-5.8 1.65-8.43.18s-4.26-4.26-4.26-7.27v-48.73h-69.328c-4.59 0-8.325-3.73-8.325-8.32v-91.398c0-4.59 3.734-8.325 8.325-8.325h69.328v-48.729c0-3.014 1.63-5.799 4.26-7.268 2.63-1.471 5.86-1.403 8.43.178z"/>
 <linearGradient id="XMLID_6_" y2="188.43" gradientUnits="userSpaceOnUse" x2="204.8" gradientTransform="matrix(-1,0,0,1,256,0)" y1="67.09" x1="83.459">
  <stop stop-color="#06c" offset="0"/>
  <stop stop-color="#039" offset="1"/>
 </linearGradient>
 <path d="m114.73 18.158c0 .001 2.88 1.773 2.88 1.773 3.02 1.861 30.31 18.787 57.42 39.705 38.61 29.781 56.58 51.504 56.58 68.364s-17.98 38.58-56.58 68.36c-27.16 20.96-54.41 37.85-57.42 39.71l-2.88 1.77c-2.57 1.58-5.8 1.65-8.43.18s-4.26-4.26-4.26-7.27v-48.73h-69.328c-4.59 0-8.325-3.73-8.325-8.32v-91.398c0-4.59 3.734-8.325 8.325-8.325h69.328v-48.729c0-3.014 1.63-5.799 4.26-7.268 2.63-1.471 5.86-1.403 8.43.178z" fill="url(#XMLID_6_)"/>
 <linearGradient id="XMLID_7_" y2="188.42" gradientUnits="userSpaceOnUse" x2="204.81" gradientTransform="matrix(-1,0,0,1,256,0)" y1="67.087" x1="83.478">
  <stop stop-color="#06c" offset="0"/>
  <stop stop-color="#039" offset="1"/>
 </linearGradient>
 <path d="m112.84 21.224l2.88 1.773c3 1.85 30.14 18.676 57.12 39.49 37.12 28.645 55.17 50.073 55.17 65.513s-18.05 36.87-55.17 65.51c-26.97 20.8-54.11 37.64-57.12 39.49l-2.88 1.78c-1.46.89-3.29.93-4.78.10-1.5-.84-2.42-2.42-2.42-4.13v-52.33h-72.927c-2.609 0-4.725-2.11-4.725-4.72v-91.398c0-2.609 2.116-4.725 4.725-4.725h72.927v-52.33c0-1.712.92-3.29 2.42-4.125 1.49-.835 3.32-.796 4.78.102z" fill="url(#XMLID_7_)"/>
 <linearGradient id="XMLID_8_" y2="188.39" gradientUnits="userSpaceOnUse" x2="204.81" gradientTransform="matrix(-1,0,0,1,256,0)" y1="66.984" x1="83.398">
  <stop stop-color="#fff" offset="0"/>
  <stop stop-color="#f0f0f0" offset="1"/>
 </linearGradient>
 <path d="m113.24 27.021c4.5 2.766 110.05 68.127 110.05 100.98 0 32.85-105.55 98.21-110.05 100.98l-2.88 1.77v-57.05h-77.648v-91.398h77.648v-57.055l2.88 1.774z" fill="url(#XMLID_8_)"/>
 <linearGradient id="XMLID_9_" y2="189.31" gradientUnits="userSpaceOnUse" x2="203.91" gradientTransform="matrix(-1,0,0,1,256,0)" y1="67.967" x1="82.572">
  <stop stop-color="#fff" offset="0"/>
  <stop stop-color="#dfdfdf" offset="1"/>
 </linearGradient>
 <path d="m216.99 128c0 20.5-58.94 65.1-100.33 91.4v-52h-77.647v-78.799h77.647v-52.005c41.4 26.3 100.33 70.894 100.33 91.404z" fill="url(#XMLID_9_)"/>
 <linearGradient id="XMLID_10_" y2="184.88" gradientUnits="userSpaceOnUse" x2="195.36" gradientTransform="matrix(-1,0,0,1,256,0)" y1="92.284" x1="102.76">
  <stop stop-color="#428aff" offset="0"/>
  <stop stop-color="#039" offset="1"/>
 </linearGradient>
 <path d="m155.74 80.997c39.64 30.263 46.14 44.283 47.08 47.003-.94 2.73-7.45 16.74-47.08 47-7.64 5.83-16.05 11.9-25.04 18.11v-39.75h-77.647v-50.72h77.647v-39.753c8.99 6.203 17.4 12.28 25.04 18.11z" fill="url(#XMLID_10_)"/>
</svg>
