<?xml version="1.0" encoding="UTF-8" standalone="no"?>
<!DOCTYPE svg
  PUBLIC '-//W3C//DTD SVG 20010904//EN'
  'http://www.w3.org/TR/2001/REC-SVG-20010904/DTD/svg10.dtd'>

<svg xmlns:rdf="http://www.w3.org/1999/02/22-rdf-syntax-ns#" xmlns:xml="http://www.w3.org/XML/1998/namespace" xmlns="http://www.w3.org/2000/svg" xmlns:x="adobe:ns:meta/" xml:space="preserve" style="enable-background:new 0 0 256 256;" height="48pt" viewBox="0 0 256 256" width="48pt" xmlns:xlink="http://www.w3.org/1999/xlink" xmlns:xapGImg="http://ns.adobe.com/xap/1.0/g/img/" xmlns:xap="http://ns.adobe.com/xap/1.0/" xmlns:pdf="http://ns.adobe.com/pdf/1.3/" xmlns:xapMM="http://ns.adobe.com/xap/1.0/mm/" xmlns:dc="http://purl.org/dc/elements/1.1/">
    <rect width="256" fill="none" height="256"/>
    <path opacity=".2" d="m21.234 145.27c.001-.002 1.773-2.879 1.773-2.879 1.861-3.023 18.787-30.316 39.705-57.428 29.781-38.6 51.503-56.577 68.364-56.577 16.858 0 38.581 17.977 68.361 56.577 20.96 27.166 37.851 54.41 39.707 57.428l1.773 2.881c1.581 2.565 1.649 5.795.178 8.425-1.47 2.631-4.256 4.265-7.267 4.265h-48.73v69.324c0 4.59-3.733 8.324-8.324 8.324l-91.397.001c-4.59 0-8.325-3.735-8.325-8.325v-69.324h-48.729c-3.014 0-5.799-1.635-7.268-4.267-1.477-2.62-1.409-5.85.173-8.42z"/>
    <path opacity=".2" d="m19.234 143.27c.001-.002 1.773-2.879 1.773-2.879 1.861-3.023 18.787-30.316 39.705-57.428 29.781-38.6 51.503-56.577 68.364-56.577 16.858 0 38.581 17.977 68.361 56.577 20.96 27.166 37.851 54.41 39.707 57.428l1.773 2.881c1.581 2.565 1.649 5.795.178 8.425-1.47 2.631-4.256 4.265-7.267 4.265h-48.73v69.324c0 4.59-3.733 8.324-8.324 8.324l-91.397.001c-4.59 0-8.325-3.735-8.325-8.325v-69.324h-48.729c-3.014 0-5.799-1.635-7.268-4.267-1.477-2.62-1.409-5.85.173-8.42z"/>
    <linearGradient id="XMLID_5_" y2="188.43" gradientUnits="userSpaceOnUse" x2="204.8" gradientTransform="matrix(0 1 1 0 -.00048828 -.00097656)" y1="67.091" x1="83.46">
      <stop stop-color="#06c" offset="0"/>
      <stop stop-color="#039" offset="1"/>
    </linearGradient>
    <path fill="url(#XMLID_5_)" d="m18.158 141.27c.001-.002 1.773-2.879 1.773-2.879 1.861-3.023 18.787-30.316 39.705-57.428 29.781-38.597 51.504-56.574 68.364-56.574 16.859 0 38.582 17.977 68.362 56.577 20.96 27.166 37.851 54.41 39.707 57.428l1.773 2.881c1.581 2.565 1.649 5.795.178 8.425-1.47 2.631-4.256 4.265-7.267 4.265h-48.73v69.324c0 4.59-3.733 8.324-8.324 8.324l-91.397.001c-4.59 0-8.325-3.735-8.325-8.325v-69.324h-48.729c-3.014 0-5.799-1.635-7.268-4.267-1.473-2.62-1.405-5.85.177-8.42z"/>
    <linearGradient id="XMLID_6_" y2="188.39" gradientUnits="userSpaceOnUse" x2="204.81" gradientTransform="matrix(0 1 1 0 -.00048828 -.00097656)" y1="66.984" x1="83.398">
      <stop stop-color="#fff" offset="0"/>
      <stop stop-color="#F0F0F0" offset="1"/>
    </linearGradient>
    <path fill="url(#XMLID_6_)" d="m27.02 142.76c2.767-4.5 68.127-110.05 100.98-110.05 32.851 0 98.213 105.55 100.98 110.04l1.773 2.881h-57.055v77.649h-91.399v-77.649h-57.055l1.774-2.87z"/>
    <linearGradient id="XMLID_7_" y2="189.3" gradientUnits="userSpaceOnUse" x2="203.91" gradientTransform="matrix(0 1 1 0 -.00048828 -.00097656)" y1="67.966" x1="82.572">
      <stop stop-color="#fff" offset="0"/>
      <stop stop-color="#DFDFDF" offset="1"/>
    </linearGradient>
    <path fill="url(#XMLID_7_)" d="m128 39.013c20.504 0 65.099 58.931 91.403 100.32h-52.005s0 67.011 0 77.648c-10.114 0-68.682.001-78.796.001v-77.649s-37.439 0-52.005 0c26.296-41.386 70.891-100.32 91.401-100.32z"/>
    <linearGradient id="XMLID_8_" y2="184.88" gradientUnits="userSpaceOnUse" x2="195.36" gradientTransform="matrix(0 1 1 0 -.00048828 -.00097656)" y1="92.283" x1="102.76">
      <stop stop-color="#428AFF" offset="0"/>
      <stop stop-color="#039" offset="1"/>
    </linearGradient>
    <path fill="url(#XMLID_8_)" d="m80.997 100.26c30.265-39.645 44.281-46.141 47.005-47.09 2.726.951 16.742 7.456 47 47.09 5.825 7.63 11.902 16.042 18.109 25.034h-39.753s0 69.661 0 77.648h-50.717v-77.648s-28.692 0-39.754 0c6.204-8.98 12.281-17.39 18.111-25.03z"/>
</svg>
