<?xml version="1.0" encoding="UTF-8" standalone="no"?>
<!DOCTYPE svg
  PUBLIC '-//W3C//DTD SVG 20010904//EN'
  'http://www.w3.org/TR/2001/REC-SVG-20010904/DTD/svg10.dtd'>

<svg xmlns:rdf="http://www.w3.org/1999/02/22-rdf-syntax-ns#" xmlns:xml="http://www.w3.org/XML/1998/namespace" xmlns="http://www.w3.org/2000/svg" xmlns:x="adobe:ns:meta/" xml:space="preserve" style="enable-background:new 0 0 256 256;" height="48pt" viewBox="0 0 256 256" width="48pt" xmlns:xlink="http://www.w3.org/1999/xlink" xmlns:xapGImg="http://ns.adobe.com/xap/1.0/g/img/" xmlns:xap="http://ns.adobe.com/xap/1.0/" xmlns:pdf="http://ns.adobe.com/pdf/1.3/" xmlns:xapMM="http://ns.adobe.com/xap/1.0/mm/" xmlns:dc="http://purl.org/dc/elements/1.1/">
    <path opacity=".2" d="m144.27 21.158c-.002.001-2.879 1.773-2.879 1.773-3.023 1.861-30.316 18.787-57.429 39.705-38.595 29.781-56.573 51.504-56.573 68.364 0 16.859 17.978 38.582 56.577 68.362 27.166 20.959 54.411 37.85 57.429 39.706l2.881 1.773c2.565 1.582 5.794 1.65 8.425.179s4.265-4.256 4.265-7.268v-48.729h69.323c4.591 0 8.325-3.734 8.325-8.324v-91.398c0-4.59-3.734-8.325-8.325-8.325h-69.323v-48.729c0-3.014-1.635-5.799-4.268-7.268-2.62-1.471-5.85-1.403-8.42.178z"/>
    <path opacity=".2" d="m142.27 20.158c-.002.001-2.879 1.773-2.879 1.773-3.023 1.861-30.316 18.787-57.429 39.705-38.595 29.781-56.573 51.504-56.573 68.364 0 16.859 17.978 38.582 56.577 68.362 27.166 20.959 54.411 37.85 57.429 39.706l2.881 1.773c2.565 1.582 5.794 1.65 8.425.179s4.265-4.256 4.265-7.268v-48.729h69.323c4.591 0 8.325-3.734 8.325-8.324v-91.398c0-4.59-3.734-8.325-8.325-8.325h-69.323v-48.729c0-3.014-1.635-5.799-4.268-7.268-2.62-1.471-5.85-1.403-8.42.178z"/>
    <linearGradient id="XMLID_5_" y2="188.43" gradientUnits="userSpaceOnUse" x2="204.8" y1="67.09" x1="83.459">
      <stop stop-color="#06c" offset="0"/>
      <stop stop-color="#039" offset="1"/>
    </linearGradient>
    <path fill="url(#XMLID_5_)" d="m141.27 18.158c-.002.001-2.879 1.773-2.879 1.773-3.023 1.861-30.316 18.787-57.429 39.705-38.595 29.781-56.573 51.504-56.573 68.364 0 16.859 17.978 38.582 56.577 68.362 27.166 20.959 54.411 37.85 57.429 39.706l2.881 1.773c2.565 1.582 5.794 1.65 8.425.179s4.265-4.256 4.265-7.268v-48.729h69.323c4.591 0 8.325-3.734 8.325-8.324v-91.398c0-4.59-3.734-8.325-8.325-8.325h-69.323v-48.729c0-3.014-1.635-5.799-4.268-7.268-2.62-1.471-5.85-1.403-8.42.178z"/>
    <linearGradient id="XMLID_6_" y2="188.39" gradientUnits="userSpaceOnUse" x2="204.81" y1="66.985" x1="83.398">
      <stop stop-color="#fff" offset="0"/>
      <stop stop-color="#F0F0F0" offset="1"/>
    </linearGradient>
    <path fill="url(#XMLID_6_)" d="m142.76 27.021c-4.5 2.766-110.05 68.127-110.05 100.98 0 32.852 105.55 98.213 110.04 100.98l2.881 1.773v-57.054h77.648v-91.398h-77.648v-57.055l-2.87 1.774z"/>
    <linearGradient id="XMLID_7_" y2="189.31" gradientUnits="userSpaceOnUse" x2="203.91" y1="67.967" x1="82.571">
      <stop stop-color="#fff" offset="0"/>
      <stop stop-color="#DFDFDF" offset="1"/>
    </linearGradient>
    <path fill="url(#XMLID_7_)" d="m39.013 128c0 20.505 58.931 65.1 100.33 91.402v-52.004s67.011 0 77.648 0v-78.797h-77.648s0-37.439 0-52.005c-41.396 26.298-100.33 70.892-100.33 91.402z"/>
    <linearGradient id="XMLID_8_" y2="184.88" gradientUnits="userSpaceOnUse" x2="195.36" y1="92.284" x1="102.76">
      <stop stop-color="#428AFF" offset="0"/>
      <stop stop-color="#039" offset="1"/>
    </linearGradient>
    <path fill="url(#XMLID_8_)" d="m100.26 80.997c-39.645 30.265-46.141 44.281-47.09 47.005.951 2.726 7.456 16.743 47.09 47 7.63 5.826 16.043 11.903 25.034 18.11v-39.753s69.662 0 77.649 0v-50.718h-77.649s0-28.692 0-39.754c-8.98 6.204-17.39 12.281-25.03 18.111z"/>
    <rect width="256" fill="none" height="256"/>
</svg>
