<?xml version="1.0" encoding="UTF-8" standalone="no"?>
<svg xmlns:rdf="http://www.w3.org/1999/02/22-rdf-syntax-ns#" xmlns="http://www.w3.org/2000/svg" height="48pt" width="48pt" version="1.1" xmlns:cc="http://creativecommons.org/ns#" xmlns:xlink="http://www.w3.org/1999/xlink" viewBox="0 0 256 256" xmlns:dc="http://purl.org/dc/elements/1.1/">
 <defs>
  <linearGradient id="linearGradient7294" y2="188.43" gradientUnits="userSpaceOnUse" x2="204.8" gradientTransform="matrix(-1,0,0,1,256,0)" y1="67.09" x1="83.459">
   <stop stop-color="#06c" offset="0"/>
   <stop stop-color="#039" offset="1"/>
  </linearGradient>
  <linearGradient id="linearGradient7296" y2="188.42" gradientUnits="userSpaceOnUse" x2="204.81" gradientTransform="matrix(-1,0,0,1,256,0)" y1="67.087" x1="83.478">
   <stop stop-color="#06c" offset="0"/>
   <stop stop-color="#039" offset="1"/>
  </linearGradient>
  <linearGradient id="linearGradient7298" y2="188.39" gradientUnits="userSpaceOnUse" x2="204.81" gradientTransform="matrix(-1,0,0,1,256,0)" y1="66.984" x1="83.398">
   <stop stop-color="#fff" offset="0"/>
   <stop stop-color="#f0f0f0" offset="1"/>
  </linearGradient>
  <linearGradient id="linearGradient7300" y2="189.31" gradientUnits="userSpaceOnUse" x2="203.91" gradientTransform="matrix(-1,0,0,1,256,0)" y1="67.967" x1="82.572">
   <stop stop-color="#fff" offset="0"/>
   <stop stop-color="#dfdfdf" offset="1"/>
  </linearGradient>
  <linearGradient id="linearGradient7302" y2="184.88" gradientUnits="userSpaceOnUse" x2="195.36" gradientTransform="matrix(-1,0,0,1,256,0)" y1="92.284" x1="102.76">
   <stop stop-color="#428aff" offset="0"/>
   <stop stop-color="#039" offset="1"/>
  </linearGradient>
 </defs>
 <g transform="matrix(-.70711 -.70711 -.70711 .70711 309.02 128)">
  <rect height="256" width="256" y="0" x="0" fill="none"/>
  <path opacity=".2" d="m116.73 22.158c.002.0010 2.879 1.773 2.879 1.773 3.023 1.861 30.316 18.787 57.427 39.705 38.601 29.781 56.577 51.503 56.577 68.363 0 16.859-17.977 38.582-56.577 68.362-27.165 20.959-54.41 37.85-57.427 39.706l-2.881 1.773c-2.566 1.582-5.795 1.65-8.425.179-2.631-1.471-4.265-4.256-4.265-7.268v-48.729h-69.324c-4.59 0-8.325-3.734-8.325-8.324v-91.396c0-4.59 3.734-8.325 8.325-8.325h69.324v-48.729c0-3.014 1.635-5.799 4.267-7.268 2.628-1.471 5.857-1.403 8.425.178z"/>
  <path opacity=".2" d="m115.73 20.158c.002.0010 2.879 1.773 2.879 1.773 3.023 1.861 30.316 18.787 57.427 39.705 38.601 29.781 56.577 51.503 56.577 68.363 0 16.859-17.977 38.582-56.577 68.362-27.165 20.959-54.41 37.85-57.427 39.706l-2.881 1.773c-2.566 1.582-5.795 1.65-8.425.179-2.631-1.471-4.265-4.256-4.265-7.268v-48.729h-69.324c-4.59 0-8.325-3.734-8.325-8.324v-91.396c0-4.59 3.734-8.325 8.325-8.325h69.324v-48.729c0-3.014 1.635-5.799 4.267-7.268 2.628-1.471 5.857-1.403 8.425.178z"/>
  <path fill="url(#linearGradient7294)" d="m114.73 18.158c.002.0010 2.879 1.773 2.879 1.773 3.023 1.861 30.316 18.787 57.427 39.705 38.601 29.781 56.577 51.503 56.577 68.363 0 16.859-17.977 38.582-56.577 68.362-27.165 20.959-54.41 37.85-57.427 39.706l-2.881 1.773c-2.566 1.582-5.795 1.65-8.425.179-2.631-1.471-4.265-4.256-4.265-7.268v-48.729h-69.324c-4.59 0-8.325-3.734-8.325-8.324v-91.396c0-4.59 3.734-8.325 8.325-8.325h69.324v-48.729c0-3.014 1.635-5.799 4.267-7.268 2.628-1.471 5.857-1.403 8.425.178z"/>
  <path fill="url(#linearGradient7296)" d="m112.84 21.224 2.881 1.773c3.004 1.85 30.138 18.676 57.116 39.49 37.128 28.645 55.176 50.075 55.176 65.513s-18.048 36.866-55.176 65.512c-26.962 20.802-54.108 37.641-57.116 39.491l-2.881 1.773c-1.458.898-3.288.938-4.781.103-1.495-.836-2.421-2.414-2.421-4.126v-52.329h-72.924c-2.609 0-4.725-2.115-4.725-4.725v-91.397c0-2.609 2.116-4.725 4.725-4.725h72.924v-52.33c0-1.712.926-3.29 2.421-4.125 1.493-.835 3.324-.796 4.781.102z"/>
  <path fill="url(#linearGradient7298)" d="m113.24 27.021c4.494 2.766 110.04 68.127 110.04 100.98 0 32.852-105.55 98.213-110.04 100.98l-2.881 1.773v-57.054h-77.649v-91.396h77.649v-57.055l2.881 1.774z"/>
  <path fill="url(#linearGradient7300)" d="m216.99 128c0 20.505-58.932 65.1-100.32 91.402v-52.004h-77.648v-78.797h77.648v-52.005c41.394 26.3 100.32 70.892 100.32 91.404z"/>
  <path fill="url(#linearGradient7302)" d="m155.74 80.997c39.646 30.265 46.141 44.281 47.09 47.005-.95 2.726-7.455 16.743-47.09 47-7.631 5.826-16.042 11.903-25.033 18.11v-39.753h-77.649v-50.718h77.649v-39.754c8.985 6.203 17.397 12.28 25.033 18.11z"/>
 </g>
</svg>
