<?xml version="1.0" encoding="UTF-8" standalone="no"?>
<svg xmlns:rdf="http://www.w3.org/1999/02/22-rdf-syntax-ns#" xmlns="http://www.w3.org/2000/svg" height="16" width="16" version="1.1" xmlns:cc="http://creativecommons.org/ns#" xmlns:dc="http://purl.org/dc/elements/1.1/">
 <g stroke-linejoin="miter" stroke-dashoffset="0" stroke="#3a3a97" stroke-linecap="round" stroke-miterlimit="4" stroke-dasharray="none" stroke-width=".40826" fill="none">
  <path style="enable-background:accumulate;color:#000000;" d="m2.55 1.3796c0 .64901-.52611 1.1751-1.1751 1.1751-.64901 0-1.1751-.52611-1.1751-1.1751 0-.64901.52611-1.1751 1.1751-1.1751.64901 0 1.1751.52611 1.1751 1.1751z"/>
  <path style="enable-background:accumulate;color:#000000;" d="m6.9636 1.3796c0 .64901-.52611 1.1751-1.1751 1.1751-.64901 0-1.1751-.52611-1.1751-1.1751 0-.64901.52611-1.1751 1.1751-1.1751.64901 0 1.1751.52611 1.1751 1.1751z"/>
  <path style="enable-background:accumulate;color:#000000;" d="m11.377 1.3796c0 .64901-.52611 1.1751-1.1751 1.1751-.64901 0-1.1751-.52611-1.1751-1.1751 0-.64901.52611-1.1751 1.1751-1.1751.64901 0 1.1751.52611 1.1751 1.1751z"/>
  <path style="enable-background:accumulate;color:#000000;" d="m15.791 1.3796c0 .64901-.52611 1.1751-1.1751 1.1751-.64901 0-1.1751-.52611-1.1751-1.1751 0-.64901.52611-1.1751 1.1751-1.1751.64901 0 1.1751.52611 1.1751 1.1751z"/>
  <path style="enable-background:accumulate;color:#000000;" d="m2.55 5.7932c0 .64901-.52611 1.1751-1.1751 1.1751-.64901 0-1.1751-.52611-1.1751-1.1751 0-.64901.52611-1.1751 1.1751-1.1751.64901 0 1.1751.52611 1.1751 1.1751z"/>
 </g>
 <path stroke-linejoin="miter" style="enable-background:accumulate;color:#000000;" d="m6.9636 5.7932c0 .64901-.52611 1.1751-1.1751 1.1751-.64901 0-1.1751-.52611-1.1751-1.1751 0-.64901.52611-1.1751 1.1751-1.1751.64901 0 1.1751.52611 1.1751 1.1751z" stroke-dashoffset="0" stroke="#3a3a97" stroke-linecap="round" stroke-miterlimit="4" stroke-dasharray="none" stroke-width=".40826" fill="#f00"/>
 <g stroke-linejoin="miter" stroke-dashoffset="0" stroke="#3a3a97" stroke-linecap="round" stroke-miterlimit="4" stroke-dasharray="none" stroke-width=".40826" fill="none">
  <path style="enable-background:accumulate;color:#000000;" d="m11.377 5.7932c0 .64901-.52611 1.1751-1.1751 1.1751-.64901 0-1.1751-.52611-1.1751-1.1751 0-.64901.52611-1.1751 1.1751-1.1751.64901 0 1.1751.52611 1.1751 1.1751z"/>
  <path style="enable-background:accumulate;color:#000000;" d="m15.791 5.7932c0 .64901-.52611 1.1751-1.1751 1.1751-.64901 0-1.1751-.52611-1.1751-1.1751 0-.64901.52611-1.1751 1.1751-1.1751.64901 0 1.1751.52611 1.1751 1.1751z"/>
  <path style="enable-background:accumulate;color:#000000;" d="m2.55 10.207c0 .64901-.52611 1.1751-1.1751 1.1751-.64901 0-1.1751-.52611-1.1751-1.1751 0-.64901.52611-1.1751 1.1751-1.1751.64901 0 1.1751.52611 1.1751 1.1751z"/>
  <path style="enable-background:accumulate;color:#000000;" d="m6.9636 10.207c0 .64901-.52611 1.1751-1.1751 1.1751-.64901 0-1.1751-.52611-1.1751-1.1751 0-.64901.52611-1.1751 1.1751-1.1751.64901 0 1.1751.52611 1.1751 1.1751z"/>
  <path style="enable-background:accumulate;color:#000000;" d="m11.377 10.207c0 .64901-.52611 1.1751-1.1751 1.1751-.64901 0-1.1751-.52611-1.1751-1.1751 0-.64901.52611-1.1751 1.1751-1.1751.64901 0 1.1751.52611 1.1751 1.1751z"/>
  <path style="enable-background:accumulate;color:#000000;" d="m15.791 10.207c0 .64901-.52611 1.1751-1.1751 1.1751-.64901 0-1.1751-.52611-1.1751-1.1751 0-.64901.52611-1.1751 1.1751-1.1751.64901 0 1.1751.52611 1.1751 1.1751z"/>
  <path style="enable-background:accumulate;color:#000000;" d="m2.55 14.62c0 .64901-.52611 1.1751-1.1751 1.1751-.64901 0-1.1751-.52611-1.1751-1.1751 0-.64901.52611-1.1751 1.1751-1.1751.64901 0 1.1751.52611 1.1751 1.1751z"/>
  <path style="enable-background:accumulate;color:#000000;" d="m6.9636 14.62c0 .64901-.52611 1.1751-1.1751 1.1751-.64901 0-1.1751-.52611-1.1751-1.1751 0-.64901.52611-1.1751 1.1751-1.1751.64901 0 1.1751.52611 1.1751 1.1751z"/>
  <path style="enable-background:accumulate;color:#000000;" d="m11.377 14.62c0 .64901-.52611 1.1751-1.1751 1.1751-.64901 0-1.1751-.52611-1.1751-1.1751 0-.64901.52611-1.1751 1.1751-1.1751.64901 0 1.1751.52611 1.1751 1.1751z"/>
  <path style="enable-background:accumulate;color:#000000;" d="m15.791 14.62c0 .64901-.52611 1.1751-1.1751 1.1751-.64901 0-1.1751-.52611-1.1751-1.1751 0-.64901.52611-1.1751 1.1751-1.1751.64901 0 1.1751.52611 1.1751 1.1751z"/>
 </g>
</svg>
